<svg width="155" height="302" viewBox="0 0 155 302" fill="none" xmlns="http://www.w3.org/2000/svg">
<mask id="mask0_46_3" style="mask-type:alpha" maskUnits="userSpaceOnUse" x="53" y="150" width="95" height="122">
<path d="M97.7863 151.754C99.438 150.686 101.562 150.686 103.214 151.754L145.412 179.023C146.838 179.944 147.698 181.525 147.698 183.222V238.778C147.698 240.475 146.838 242.056 145.412 242.977L103.214 270.246C101.562 271.314 99.438 271.314 97.7863 270.246L55.5879 242.977C54.1625 242.056 53.3016 240.475 53.3016 238.778L53.3016 183.222C53.3016 181.525 54.1625 179.944 55.5879 179.023L97.7863 151.754Z" fill="#D9D9D9"/>
</mask>
<g mask="url(#mask0_46_3)">
<rect x="-176" y="-92" width="512" height="512" rx="16" fill="url(#paint0_linear_46_3)" fill-opacity="0.85"/>
</g>
<mask id="mask1_46_3" style="mask-type:alpha" maskUnits="userSpaceOnUse" x="7" y="180" width="95" height="122">
<path d="M51.7863 181.754C53.438 180.686 55.562 180.686 57.2137 181.754L99.4121 209.023C100.838 209.944 101.698 211.525 101.698 213.222V268.778C101.698 270.475 100.838 272.056 99.4121 272.977L57.2137 300.246C55.562 301.314 53.438 301.314 51.7863 300.246L9.58787 272.977C8.16247 272.056 7.30162 270.475 7.30162 268.778L7.30162 213.222C7.30162 211.525 8.16248 209.944 9.58788 209.023L51.7863 181.754Z" fill="#D9D9D9"/>
</mask>
<g mask="url(#mask1_46_3)">
<rect x="-176" y="-92" width="512" height="512" rx="16" fill="url(#paint1_linear_46_3)" fill-opacity="0.75"/>
</g>
<mask id="mask2_46_3" style="mask-type:alpha" maskUnits="userSpaceOnUse" x="7" y="121" width="95" height="121">
<path d="M51.802 122.729C53.4463 121.675 55.5537 121.675 57.198 122.729L99.3964 149.775C100.831 150.694 101.698 152.28 101.698 153.984V209.016C101.698 210.72 100.831 212.306 99.3964 213.225L57.198 240.271C55.5537 241.325 53.4463 241.325 51.802 240.271L9.60363 213.225C8.16919 212.306 7.30162 210.72 7.30162 209.016L7.30162 153.984C7.30162 152.28 8.16919 150.694 9.60363 149.775L51.802 122.729Z" fill="#D9D9D9"/>
</mask>
<g mask="url(#mask2_46_3)">
<rect x="-176" y="-92" width="512" height="512" rx="16" fill="url(#paint2_linear_46_3)" fill-opacity="0.85"/>
</g>
<mask id="mask3_46_3" style="mask-type:alpha" maskUnits="userSpaceOnUse" x="7" y="0" width="95" height="122">
<path d="M51.7863 1.75364C53.438 0.686277 55.562 0.68628 57.2137 1.75364L99.4121 29.0226C100.838 29.9437 101.698 31.525 101.698 33.2221V88.7779C101.698 90.475 100.838 92.0563 99.4121 92.9774L57.2137 120.246C55.562 121.314 53.438 121.314 51.7863 120.246L9.58787 92.9774C8.16247 92.0563 7.30162 90.475 7.30162 88.7779L7.30162 33.2221C7.30162 31.525 8.16248 29.9437 9.58788 29.0226L51.7863 1.75364Z" fill="#D9D9D9"/>
</mask>
<g mask="url(#mask3_46_3)">
<rect x="-176" y="-92" width="512" height="512" rx="16" fill="url(#paint3_linear_46_3)" fill-opacity="0.85"/>
</g>
<mask id="mask4_46_3" style="mask-type:alpha" maskUnits="userSpaceOnUse" x="53" y="89" width="95" height="124">
<path d="M97.7551 90.8029C99.4214 89.7084 101.579 89.7084 103.245 90.8029L145.443 118.519C146.851 119.443 147.698 121.014 147.698 122.698V179.302C147.698 180.986 146.851 182.557 145.443 183.481L103.245 211.197C101.579 212.292 99.4214 212.292 97.7551 211.197L55.5567 183.481C54.1492 182.557 53.3016 180.986 53.3016 179.302L53.3016 122.698C53.3016 121.014 54.1492 119.443 55.5567 118.519L97.7551 90.8029Z" fill="#D9D9D9"/>
</mask>
<g mask="url(#mask4_46_3)">
<rect x="-176" y="-92" width="512" height="512" rx="16" fill="url(#paint4_linear_46_3)" fill-opacity="0.85"/>
</g>
<mask id="mask5_46_3" style="mask-type:alpha" maskUnits="userSpaceOnUse" x="7" y="60" width="95" height="121">
<path d="M51.802 61.7292C53.4463 60.6753 55.5537 60.6753 57.198 61.7292L99.3964 88.7746C100.831 89.694 101.698 91.2805 101.698 92.9842V148.016C101.698 149.72 100.831 151.306 99.3964 152.225L57.198 179.271C55.5537 180.325 53.4463 180.325 51.802 179.271L9.60363 152.225C8.16919 151.306 7.30162 149.72 7.30162 148.016L7.30162 92.9842C7.30162 91.2805 8.16919 89.694 9.60363 88.7746L51.802 61.7292Z" fill="#D9D9D9"/>
</mask>
<g mask="url(#mask5_46_3)">
<rect x="-178.5" y="-91.5" width="511" height="511" rx="15.5" fill="url(#paint5_linear_46_3)" fill-opacity="0.85" stroke="black"/>
</g>
<defs>
<linearGradient id="paint0_linear_46_3" x1="-218.5" y1="-161.5" x2="427.394" y2="57.9178" gradientUnits="userSpaceOnUse">
<stop offset="0.119221" stop-color="#485466"/>
<stop offset="0.151498" stop-color="#485466"/>
<stop offset="0.691591" stop-color="#55647D"/>
</linearGradient>
<linearGradient id="paint1_linear_46_3" x1="-218.5" y1="-161.5" x2="427.394" y2="57.9178" gradientUnits="userSpaceOnUse">
<stop offset="0.119221" stop-color="#485466"/>
<stop offset="0.151498" stop-color="#485466"/>
<stop offset="0.691591" stop-color="#1A4892"/>
</linearGradient>
<linearGradient id="paint2_linear_46_3" x1="-218.5" y1="-161.5" x2="427.394" y2="57.9178" gradientUnits="userSpaceOnUse">
<stop offset="0.119221" stop-color="#485466"/>
<stop offset="0.151498" stop-color="#485466"/>
<stop offset="0.691591" stop-color="#155DD3"/>
</linearGradient>
<linearGradient id="paint3_linear_46_3" x1="-218.5" y1="-161.5" x2="427.394" y2="57.9178" gradientUnits="userSpaceOnUse">
<stop offset="0.119221" stop-color="#6B88B8"/>
<stop offset="0.264423" stop-color="#5A76A2"/>
<stop offset="0.432692" stop-color="#155DD3"/>
</linearGradient>
<linearGradient id="paint4_linear_46_3" x1="-218.5" y1="-161.5" x2="427.394" y2="57.9178" gradientUnits="userSpaceOnUse">
<stop offset="0.119221" stop-color="#485466"/>
<stop offset="0.151498" stop-color="#485466"/>
<stop offset="0.691591" stop-color="#155DD3"/>
</linearGradient>
<linearGradient id="paint5_linear_46_3" x1="-221.5" y1="-161.5" x2="424.394" y2="57.9178" gradientUnits="userSpaceOnUse">
<stop offset="0.119221" stop-color="#485466"/>
<stop offset="0.151498" stop-color="#485466"/>
<stop offset="0.691591" stop-color="#155DD3"/>
</linearGradient>
</defs>
</svg>
