<svg width="1024" height="512" viewBox="0 0 1024 512" fill="none" xmlns="http://www.w3.org/2000/svg">
<rect width="1024" height="512" fill="white"/>
<rect width="1024" height="512" rx="16" fill="url(#paint0_linear_41_2)" fill-opacity="0.85"/>
<path opacity="0.95" d="M80 93C80 86.3726 85.3726 81 92 81H933C939.627 81 945 86.3726 945 93V419C945 425.627 939.627 431 933 431H92C85.3726 431 80 425.627 80 419V93Z" fill="white"/>
<mask id="mask0_41_2" style="mask-type:alpha" maskUnits="userSpaceOnUse" x="197" y="240" width="70" height="80">
<path d="M229.5 241.443C231.047 240.55 232.953 240.55 234.5 241.443L264.141 258.557C265.688 259.45 266.641 261.1 266.641 262.887V297.113C266.641 298.9 265.688 300.55 264.141 301.443L234.5 318.557C232.953 319.45 231.047 319.45 229.5 318.557L199.859 301.443C198.312 300.55 197.359 298.9 197.359 297.113V262.887C197.359 261.1 198.312 259.45 199.859 258.557L229.5 241.443Z" fill="#D9D9D9"/>
</mask>
<g mask="url(#mask0_41_2)">
<rect width="1024" height="512" rx="16" fill="url(#paint1_linear_41_2)" fill-opacity="0.85"/>
</g>
<mask id="mask1_41_2" style="mask-type:alpha" maskUnits="userSpaceOnUse" x="163" y="260" width="70" height="80">
<path d="M195.5 261.443C197.047 260.55 198.953 260.55 200.5 261.443L230.141 278.557C231.688 279.45 232.641 281.1 232.641 282.887V317.113C232.641 318.9 231.688 320.55 230.141 321.443L200.5 338.557C198.953 339.45 197.047 339.45 195.5 338.557L165.859 321.443C164.312 320.55 163.359 318.9 163.359 317.113V282.887C163.359 281.1 164.312 279.45 165.859 278.557L195.5 261.443Z" fill="#D9D9D9"/>
</mask>
<g mask="url(#mask1_41_2)">
<rect width="1024" height="512" rx="16" fill="url(#paint2_linear_41_2)" fill-opacity="0.75"/>
</g>
<mask id="mask2_41_2" style="mask-type:alpha" maskUnits="userSpaceOnUse" x="163" y="221" width="70" height="80">
<path d="M195.5 222.443C197.047 221.55 198.953 221.55 200.5 222.443L230.141 239.557C231.688 240.45 232.641 242.1 232.641 243.887V278.113C232.641 279.9 231.688 281.55 230.141 282.443L200.5 299.557C198.953 300.45 197.047 300.45 195.5 299.557L165.859 282.443C164.312 281.55 163.359 279.9 163.359 278.113V243.887C163.359 242.1 164.312 240.45 165.859 239.557L195.5 222.443Z" fill="#D9D9D9"/>
</mask>
<g mask="url(#mask2_41_2)">
<rect width="1024" height="512" rx="16" fill="url(#paint3_linear_41_2)" fill-opacity="0.85"/>
</g>
<mask id="mask3_41_2" style="mask-type:alpha" maskUnits="userSpaceOnUse" x="163" y="142" width="70" height="80">
<path d="M195.5 143.443C197.047 142.55 198.953 142.55 200.5 143.443L230.141 160.557C231.688 161.45 232.641 163.1 232.641 164.887V199.113C232.641 200.9 231.688 202.55 230.141 203.443L200.5 220.557C198.953 221.45 197.047 221.45 195.5 220.557L165.859 203.443C164.312 202.55 163.359 200.9 163.359 199.113V164.887C163.359 163.1 164.312 161.45 165.859 160.557L195.5 143.443Z" fill="#D9D9D9"/>
</mask>
<g mask="url(#mask3_41_2)">
<rect width="1024" height="512" rx="16" fill="url(#paint4_linear_41_2)" fill-opacity="0.85"/>
</g>
<mask id="mask4_41_2" style="mask-type:alpha" maskUnits="userSpaceOnUse" x="197" y="201" width="70" height="80">
<path d="M229.5 202.443C231.047 201.55 232.953 201.55 234.5 202.443L264.141 219.557C265.688 220.45 266.641 222.1 266.641 223.887V258.113C266.641 259.9 265.688 261.55 264.141 262.443L234.5 279.557C232.953 280.45 231.047 280.45 229.5 279.557L199.859 262.443C198.312 261.55 197.359 259.9 197.359 258.113V223.887C197.359 222.1 198.312 220.45 199.859 219.557L229.5 202.443Z" fill="#D9D9D9"/>
</mask>
<g mask="url(#mask4_41_2)">
<rect width="1024" height="512" rx="16" fill="url(#paint5_linear_41_2)" fill-opacity="0.85"/>
</g>
<mask id="mask5_41_2" style="mask-type:alpha" maskUnits="userSpaceOnUse" x="163" y="181" width="70" height="80">
<path d="M195.5 182.443C197.047 181.55 198.953 181.55 200.5 182.443L230.141 199.557C231.688 200.45 232.641 202.1 232.641 203.887V238.113C232.641 239.9 231.688 241.55 230.141 242.443L200.5 259.557C198.953 260.45 197.047 260.45 195.5 259.557L165.859 242.443C164.312 241.55 163.359 239.9 163.359 238.113V203.887C163.359 202.1 164.312 200.45 165.859 199.557L195.5 182.443Z" fill="#D9D9D9"/>
</mask>
<g mask="url(#mask5_41_2)">
<rect width="1024" height="512" rx="16" fill="url(#paint6_linear_41_2)" fill-opacity="0.85"/>
</g>
<mask id="mask6_41_2" style="mask-type:alpha" maskUnits="userSpaceOnUse" x="306" y="212" width="554" height="90">
<path opacity="0.9" d="M306.88 300V212.832H335.808C341.696 212.832 346.645 213.685 350.656 215.392C354.752 217.013 357.867 219.573 360 223.072C362.133 226.485 363.2 230.837 363.2 236.128C363.2 240.565 362.091 244.491 359.872 247.904C357.653 251.317 354.709 253.963 351.04 255.84C347.456 257.717 343.573 258.656 339.392 258.656L340.288 252C345.493 252 350.016 252.939 353.856 254.816C357.781 256.608 360.853 259.253 363.072 262.752C365.291 266.251 366.4 270.517 366.4 275.552C366.4 283.488 363.925 289.547 358.976 293.728C354.112 297.909 347.115 300 337.984 300H306.88ZM319.68 220.896V291.04L314.56 287.712H338.368C343.147 287.712 346.816 286.475 349.376 284C352.021 281.44 353.344 278.197 353.344 274.272C353.344 269.835 352.064 266.464 349.504 264.16C347.029 261.856 343.403 260.704 338.624 260.704H314.56V248.928H336.192C340.715 248.928 344.171 247.947 346.56 245.984C348.949 243.936 350.144 240.992 350.144 237.152C350.144 233.653 348.907 230.795 346.432 228.576C344.043 226.272 340.629 225.12 336.192 225.12H315.072L319.68 220.896ZM397.898 301.792C393.034 301.792 388.853 300.939 385.354 299.232C381.855 297.525 379.167 295.093 377.29 291.936C375.498 288.693 374.602 284.853 374.602 280.416C374.602 276.32 375.541 272.693 377.418 269.536C379.295 266.293 381.983 263.733 385.482 261.856C388.981 259.979 393.119 259.04 397.898 259.04C403.871 259.04 408.65 260.405 412.234 263.136C415.903 265.781 418.463 269.451 419.914 274.144H412.746V258.144C412.746 255.499 411.85 253.067 410.058 250.848C408.266 248.629 405.109 247.52 400.586 247.52C398.197 247.52 395.551 247.819 392.65 248.416C389.834 248.928 386.89 249.867 383.818 251.232L379.978 241.376C383.477 239.669 387.103 238.389 390.858 237.536C394.613 236.683 398.282 236.256 401.866 236.256C407.242 236.256 411.679 237.237 415.178 239.2C418.677 241.163 421.279 243.808 422.986 247.136C424.693 250.379 425.546 254.048 425.546 258.144V300H416.33L413.13 288.608L419.914 286.688C418.378 291.723 415.647 295.52 411.722 298.08C407.797 300.555 403.189 301.792 397.898 301.792ZM400.202 290.4C403.957 290.4 406.986 289.547 409.29 287.84C411.594 286.048 412.746 283.573 412.746 280.416C412.746 277.173 411.594 274.699 409.29 272.992C406.986 271.285 403.957 270.432 400.202 270.432C396.447 270.432 393.418 271.285 391.114 272.992C388.81 274.699 387.658 277.173 387.658 280.416C387.658 283.573 388.81 286.048 391.114 287.84C393.418 289.547 396.447 290.4 400.202 290.4ZM460.785 301.28C456.433 301.28 452.124 300.256 447.857 298.208C443.676 296.16 440.22 292.661 437.489 287.712L447.217 281.312C449.606 284.469 451.868 286.773 454.001 288.224C456.134 289.589 458.908 290.272 462.321 290.272C465.052 290.272 467.142 289.589 468.593 288.224C470.129 286.773 470.897 285.024 470.897 282.976C470.897 281.611 470.513 280.416 469.745 279.392C469.062 278.368 467.825 277.429 466.033 276.576C464.241 275.637 461.681 274.741 458.353 273.888C452.209 272.267 447.473 270.133 444.145 267.488C440.817 264.843 439.153 260.661 439.153 254.944C439.153 251.531 440.006 248.416 441.713 245.6C443.42 242.784 445.894 240.523 449.137 238.816C452.38 237.109 456.22 236.256 460.657 236.256C465.948 236.256 470.47 237.365 474.225 239.584C477.98 241.717 480.924 244.277 483.057 247.264L473.201 254.56C472.006 253.024 470.257 251.531 467.953 250.08C465.649 248.544 462.748 247.776 459.249 247.776C457.116 247.776 455.153 248.373 453.361 249.568C451.569 250.763 450.673 252.427 450.673 254.56C450.673 256.693 451.484 258.443 453.105 259.808C454.812 261.088 457.884 262.24 462.321 263.264C469.83 265.056 475.164 267.403 478.321 270.304C481.478 273.12 483.057 276.875 483.057 281.568C483.057 285.664 481.99 289.205 479.857 292.192C477.809 295.093 475.078 297.355 471.665 298.976C468.337 300.512 464.71 301.28 460.785 301.28ZM513.023 301.792C508.159 301.792 503.978 300.939 500.479 299.232C496.98 297.525 494.292 295.093 492.415 291.936C490.623 288.693 489.727 284.853 489.727 280.416C489.727 276.32 490.666 272.693 492.543 269.536C494.42 266.293 497.108 263.733 500.607 261.856C504.106 259.979 508.244 259.04 513.023 259.04C518.996 259.04 523.775 260.405 527.359 263.136C531.028 265.781 533.588 269.451 535.039 274.144H527.871V258.144C527.871 255.499 526.975 253.067 525.183 250.848C523.391 248.629 520.234 247.52 515.711 247.52C513.322 247.52 510.676 247.819 507.775 248.416C504.959 248.928 502.015 249.867 498.943 251.232L495.103 241.376C498.602 239.669 502.228 238.389 505.983 237.536C509.738 236.683 513.407 236.256 516.991 236.256C522.367 236.256 526.804 237.237 530.303 239.2C533.802 241.163 536.404 243.808 538.111 247.136C539.818 250.379 540.671 254.048 540.671 258.144V300H531.455L528.255 288.608L535.039 286.688C533.503 291.723 530.772 295.52 526.847 298.08C522.922 300.555 518.314 301.792 513.023 301.792ZM515.327 290.4C519.082 290.4 522.111 289.547 524.415 287.84C526.719 286.048 527.871 283.573 527.871 280.416C527.871 277.173 526.719 274.699 524.415 272.992C522.111 271.285 519.082 270.432 515.327 270.432C511.572 270.432 508.543 271.285 506.239 272.992C503.935 274.699 502.783 277.173 502.783 280.416C502.783 283.573 503.935 286.048 506.239 287.84C508.543 289.547 511.572 290.4 515.327 290.4ZM566.084 300.64C563.865 300.64 561.903 300.128 560.196 299.104C558.489 297.995 557.124 296.416 556.1 294.368C555.161 292.32 554.692 289.803 554.692 286.816V212.832H567.236V282.336C567.236 284.981 567.876 286.773 569.156 287.712C570.521 288.651 572.057 289.12 573.764 289.12V299.36C572.655 299.787 571.46 300.085 570.18 300.256C568.9 300.512 567.535 300.64 566.084 300.64ZM607.482 301.152C602.021 301.152 597.669 299.573 594.426 296.416C591.269 293.173 589.69 288.181 589.69 281.44V238.304V237.536L592.122 223.456H602.49V281.696C602.49 284.085 603.087 285.877 604.282 287.072C605.562 288.267 607.141 288.864 609.018 288.864C610.469 288.864 611.749 288.779 612.858 288.608C613.967 288.437 614.949 288.224 615.802 287.968V299.872C614.693 300.213 613.455 300.512 612.09 300.768C610.81 301.024 609.274 301.152 607.482 301.152ZM580.09 249.312V237.536H615.802V249.312H580.09ZM643.626 259.808H661.674C667.306 259.808 671.829 258.272 675.242 255.2C678.655 252.128 680.362 247.861 680.362 242.4C680.362 236.597 678.655 232.245 675.242 229.344C671.914 226.357 667.434 224.864 661.802 224.864H643.626L645.93 221.92V300H633.13V212.832H663.978C669.951 212.832 675.157 214.155 679.594 216.8C684.031 219.445 687.487 222.987 689.962 227.424C692.437 231.861 693.674 236.853 693.674 242.4C693.674 247.861 692.437 252.853 689.962 257.376C687.487 261.813 683.989 265.355 679.466 268C675.029 270.56 669.823 271.84 663.85 271.84H643.626V259.808ZM721.273 301.792C716.409 301.792 712.228 300.939 708.729 299.232C705.23 297.525 702.542 295.093 700.665 291.936C698.873 288.693 697.977 284.853 697.977 280.416C697.977 276.32 698.916 272.693 700.793 269.536C702.67 266.293 705.358 263.733 708.857 261.856C712.356 259.979 716.494 259.04 721.273 259.04C727.246 259.04 732.025 260.405 735.609 263.136C739.278 265.781 741.838 269.451 743.289 274.144H736.121V258.144C736.121 255.499 735.225 253.067 733.433 250.848C731.641 248.629 728.484 247.52 723.961 247.52C721.572 247.52 718.926 247.819 716.025 248.416C713.209 248.928 710.265 249.867 707.193 251.232L703.353 241.376C706.852 239.669 710.478 238.389 714.233 237.536C717.988 236.683 721.657 236.256 725.241 236.256C730.617 236.256 735.054 237.237 738.553 239.2C742.052 241.163 744.654 243.808 746.361 247.136C748.068 250.379 748.921 254.048 748.921 258.144V300H739.705L736.505 288.608L743.289 286.688C741.753 291.723 739.022 295.52 735.097 298.08C731.172 300.555 726.564 301.792 721.273 301.792ZM723.577 290.4C727.332 290.4 730.361 289.547 732.665 287.84C734.969 286.048 736.121 283.573 736.121 280.416C736.121 277.173 734.969 274.699 732.665 272.992C730.361 271.285 727.332 270.432 723.577 270.432C719.822 270.432 716.793 271.285 714.489 272.992C712.185 274.699 711.033 277.173 711.033 280.416C711.033 283.573 712.185 286.048 714.489 287.84C716.793 289.547 719.822 290.4 723.577 290.4ZM784.16 301.28C779.808 301.28 775.499 300.256 771.232 298.208C767.051 296.16 763.595 292.661 760.864 287.712L770.592 281.312C772.981 284.469 775.243 286.773 777.376 288.224C779.509 289.589 782.283 290.272 785.696 290.272C788.427 290.272 790.517 289.589 791.968 288.224C793.504 286.773 794.272 285.024 794.272 282.976C794.272 281.611 793.888 280.416 793.12 279.392C792.437 278.368 791.2 277.429 789.408 276.576C787.616 275.637 785.056 274.741 781.728 273.888C775.584 272.267 770.848 270.133 767.52 267.488C764.192 264.843 762.528 260.661 762.528 254.944C762.528 251.531 763.381 248.416 765.088 245.6C766.795 242.784 769.269 240.523 772.512 238.816C775.755 237.109 779.595 236.256 784.032 236.256C789.323 236.256 793.845 237.365 797.6 239.584C801.355 241.717 804.299 244.277 806.432 247.264L796.576 254.56C795.381 253.024 793.632 251.531 791.328 250.08C789.024 248.544 786.123 247.776 782.624 247.776C780.491 247.776 778.528 248.373 776.736 249.568C774.944 250.763 774.048 252.427 774.048 254.56C774.048 256.693 774.859 258.443 776.48 259.808C778.187 261.088 781.259 262.24 785.696 263.264C793.205 265.056 798.539 267.403 801.696 270.304C804.853 273.12 806.432 276.875 806.432 281.568C806.432 285.664 805.365 289.205 803.232 292.192C801.184 295.093 798.453 297.355 795.04 298.976C791.712 300.512 788.085 301.28 784.16 301.28ZM837.535 301.28C833.183 301.28 828.874 300.256 824.607 298.208C820.426 296.16 816.97 292.661 814.239 287.712L823.967 281.312C826.356 284.469 828.618 286.773 830.751 288.224C832.884 289.589 835.658 290.272 839.071 290.272C841.802 290.272 843.892 289.589 845.343 288.224C846.879 286.773 847.647 285.024 847.647 282.976C847.647 281.611 847.263 280.416 846.495 279.392C845.812 278.368 844.575 277.429 842.783 276.576C840.991 275.637 838.431 274.741 835.103 273.888C828.959 272.267 824.223 270.133 820.895 267.488C817.567 264.843 815.903 260.661 815.903 254.944C815.903 251.531 816.756 248.416 818.463 245.6C820.17 242.784 822.644 240.523 825.887 238.816C829.13 237.109 832.97 236.256 837.407 236.256C842.698 236.256 847.22 237.365 850.975 239.584C854.73 241.717 857.674 244.277 859.807 247.264L849.951 254.56C848.756 253.024 847.007 251.531 844.703 250.08C842.399 248.544 839.498 247.776 835.999 247.776C833.866 247.776 831.903 248.373 830.111 249.568C828.319 250.763 827.423 252.427 827.423 254.56C827.423 256.693 828.234 258.443 829.855 259.808C831.562 261.088 834.634 262.24 839.071 263.264C846.58 265.056 851.914 267.403 855.071 270.304C858.228 273.12 859.807 276.875 859.807 281.568C859.807 285.664 858.74 289.205 856.607 292.192C854.559 295.093 851.828 297.355 848.415 298.976C845.087 300.512 841.46 301.28 837.535 301.28Z" fill="#66FF00"/>
</mask>
<g mask="url(#mask6_41_2)">
<rect width="1024" height="512" rx="16" fill="url(#paint7_linear_41_2)" fill-opacity="0.85"/>
</g>
<defs>
<linearGradient id="paint0_linear_41_2" x1="140" y1="148.5" x2="502.615" y2="632.679" gradientUnits="userSpaceOnUse">
<stop offset="0.123552" stop-color="#B8D7F9"/>
<stop offset="0.330874" stop-color="#8AAADA"/>
<stop offset="0.515577" stop-color="#5C7EBC"/>
<stop offset="0.66304" stop-color="#2E529D"/>
<stop offset="0.801109" stop-color="#002C8D"/>
<stop offset="0.938573" stop-color="#002783"/>
</linearGradient>
<linearGradient id="paint1_linear_41_2" x1="-85" y1="-69.5" x2="900.802" y2="600.277" gradientUnits="userSpaceOnUse">
<stop offset="0.119221" stop-color="#485466"/>
<stop offset="0.151498" stop-color="#485466"/>
<stop offset="0.691591" stop-color="#55647D"/>
</linearGradient>
<linearGradient id="paint2_linear_41_2" x1="-85" y1="-69.5" x2="900.802" y2="600.277" gradientUnits="userSpaceOnUse">
<stop offset="0.119221" stop-color="#485466"/>
<stop offset="0.151498" stop-color="#485466"/>
<stop offset="0.691591" stop-color="#1A4892"/>
</linearGradient>
<linearGradient id="paint3_linear_41_2" x1="-85" y1="-69.5" x2="900.802" y2="600.277" gradientUnits="userSpaceOnUse">
<stop offset="0.119221" stop-color="#485466"/>
<stop offset="0.151498" stop-color="#485466"/>
<stop offset="0.691591" stop-color="#155DD3"/>
</linearGradient>
<linearGradient id="paint4_linear_41_2" x1="-85" y1="-69.5" x2="900.802" y2="600.277" gradientUnits="userSpaceOnUse">
<stop offset="0.119221" stop-color="#6B88B8"/>
<stop offset="0.264423" stop-color="#5A76A2"/>
<stop offset="0.432692" stop-color="#155DD3"/>
</linearGradient>
<linearGradient id="paint5_linear_41_2" x1="-85" y1="-69.5" x2="900.802" y2="600.277" gradientUnits="userSpaceOnUse">
<stop offset="0.119221" stop-color="#485466"/>
<stop offset="0.151498" stop-color="#485466"/>
<stop offset="0.691591" stop-color="#155DD3"/>
</linearGradient>
<linearGradient id="paint6_linear_41_2" x1="-85" y1="-69.5" x2="900.802" y2="600.277" gradientUnits="userSpaceOnUse">
<stop offset="0.119221" stop-color="#485466"/>
<stop offset="0.151498" stop-color="#485466"/>
<stop offset="0.691591" stop-color="#155DD3"/>
</linearGradient>
<linearGradient id="paint7_linear_41_2" x1="-85" y1="-69.5" x2="900.802" y2="600.277" gradientUnits="userSpaceOnUse">
<stop offset="0.119221" stop-color="#485466"/>
<stop offset="0.151498" stop-color="#485466"/>
<stop offset="0.691591" stop-color="#1A4892"/>
</linearGradient>
</defs>
</svg>
