<svg width="865" height="350" viewBox="0 0 865 350" fill="none" xmlns="http://www.w3.org/2000/svg">
<rect width="865" height="350" fill="white"/>
<path opacity="0.95" d="M0 12C0 5.37259 5.37258 0 12 0H853C859.627 0 865 5.37258 865 12V338C865 344.627 859.627 350 853 350H12C5.37261 350 0 344.627 0 338V12Z" fill="white"/>
<mask id="mask0_41_2" style="mask-type:alpha" maskUnits="userSpaceOnUse" x="117" y="159" width="70" height="80">
<path d="M149.5 160.443C151.047 159.55 152.953 159.55 154.5 160.443L184.141 177.557C185.688 178.45 186.641 180.1 186.641 181.887V216.113C186.641 217.9 185.688 219.55 184.141 220.443L154.5 237.557C152.953 238.45 151.047 238.45 149.5 237.557L119.859 220.443C118.312 219.55 117.359 217.9 117.359 216.113V181.887C117.359 180.1 118.312 178.45 119.859 177.557L149.5 160.443Z" fill="#D9D9D9"/>
</mask>
<g mask="url(#mask0_41_2)">
<rect x="-80" y="-81" width="1024" height="512" rx="16" fill="url(#paint0_linear_41_2)" fill-opacity="0.85"/>
</g>
<mask id="mask1_41_2" style="mask-type:alpha" maskUnits="userSpaceOnUse" x="83" y="179" width="70" height="80">
<path d="M115.5 180.443C117.047 179.55 118.953 179.55 120.5 180.443L150.141 197.557C151.688 198.45 152.641 200.1 152.641 201.887V236.113C152.641 237.9 151.688 239.55 150.141 240.443L120.5 257.557C118.953 258.45 117.047 258.45 115.5 257.557L85.859 240.443C84.312 239.55 83.359 237.9 83.359 236.113V201.887C83.359 200.1 84.312 198.45 85.859 197.557L115.5 180.443Z" fill="#D9D9D9"/>
</mask>
<g mask="url(#mask1_41_2)">
<rect x="-80" y="-81" width="1024" height="512" rx="16" fill="url(#paint1_linear_41_2)" fill-opacity="0.75"/>
</g>
<mask id="mask2_41_2" style="mask-type:alpha" maskUnits="userSpaceOnUse" x="83" y="140" width="70" height="80">
<path d="M115.5 141.443C117.047 140.55 118.953 140.55 120.5 141.443L150.141 158.557C151.688 159.45 152.641 161.1 152.641 162.887V197.113C152.641 198.9 151.688 200.55 150.141 201.443L120.5 218.557C118.953 219.45 117.047 219.45 115.5 218.557L85.859 201.443C84.312 200.55 83.359 198.9 83.359 197.113V162.887C83.359 161.1 84.312 159.45 85.859 158.557L115.5 141.443Z" fill="#D9D9D9"/>
</mask>
<g mask="url(#mask2_41_2)">
<rect x="-80" y="-81" width="1024" height="512" rx="16" fill="url(#paint2_linear_41_2)" fill-opacity="0.85"/>
</g>
<mask id="mask3_41_2" style="mask-type:alpha" maskUnits="userSpaceOnUse" x="83" y="61" width="70" height="80">
<path d="M115.5 62.4434C117.047 61.5502 118.953 61.5502 120.5 62.4434L150.141 79.5566C151.688 80.4498 152.641 82.1004 152.641 83.8868V118.113C152.641 119.9 151.688 121.55 150.141 122.443L120.5 139.557C118.953 140.45 117.047 140.45 115.5 139.557L85.859 122.443C84.312 121.55 83.359 119.9 83.359 118.113V83.8867C83.359 82.1004 84.312 80.4498 85.859 79.5566L115.5 62.4434Z" fill="#D9D9D9"/>
</mask>
<g mask="url(#mask3_41_2)">
<rect x="-80" y="-81" width="1024" height="512" rx="16" fill="url(#paint3_linear_41_2)" fill-opacity="0.85"/>
</g>
<mask id="mask4_41_2" style="mask-type:alpha" maskUnits="userSpaceOnUse" x="117" y="120" width="70" height="80">
<path d="M149.5 121.443C151.047 120.55 152.953 120.55 154.5 121.443L184.141 138.557C185.688 139.45 186.641 141.1 186.641 142.887V177.113C186.641 178.9 185.688 180.55 184.141 181.443L154.5 198.557C152.953 199.45 151.047 199.45 149.5 198.557L119.859 181.443C118.312 180.55 117.359 178.9 117.359 177.113V142.887C117.359 141.1 118.312 139.45 119.859 138.557L149.5 121.443Z" fill="#D9D9D9"/>
</mask>
<g mask="url(#mask4_41_2)">
<rect x="-80" y="-81" width="1024" height="512" rx="16" fill="url(#paint4_linear_41_2)" fill-opacity="0.85"/>
</g>
<mask id="mask5_41_2" style="mask-type:alpha" maskUnits="userSpaceOnUse" x="83" y="100" width="70" height="80">
<path d="M115.5 101.443C117.047 100.55 118.953 100.55 120.5 101.443L150.141 118.557C151.688 119.45 152.641 121.1 152.641 122.887V157.113C152.641 158.9 151.688 160.55 150.141 161.443L120.5 178.557C118.953 179.45 117.047 179.45 115.5 178.557L85.859 161.443C84.312 160.55 83.359 158.9 83.359 157.113V122.887C83.359 121.1 84.312 119.45 85.859 118.557L115.5 101.443Z" fill="#D9D9D9"/>
</mask>
<g mask="url(#mask5_41_2)">
<rect x="-80" y="-81" width="1024" height="512" rx="16" fill="url(#paint5_linear_41_2)" fill-opacity="0.85"/>
</g>
<mask id="mask6_41_2" style="mask-type:alpha" maskUnits="userSpaceOnUse" x="226" y="131" width="554" height="90">
<path opacity="0.9" d="M226.88 219V131.832H255.808C261.696 131.832 266.645 132.685 270.656 134.392C274.752 136.013 277.867 138.573 280 142.072C282.133 145.485 283.2 149.837 283.2 155.128C283.2 159.565 282.091 163.491 279.872 166.904C277.653 170.317 274.709 172.963 271.04 174.84C267.456 176.717 263.573 177.656 259.392 177.656L260.288 171C265.493 171 270.016 171.939 273.856 173.816C277.781 175.608 280.853 178.253 283.072 181.752C285.291 185.251 286.4 189.517 286.4 194.552C286.4 202.488 283.925 208.547 278.976 212.728C274.112 216.909 267.115 219 257.984 219H226.88ZM239.68 139.896V210.04L234.56 206.712H258.368C263.147 206.712 266.816 205.475 269.376 203C272.021 200.44 273.344 197.197 273.344 193.272C273.344 188.835 272.064 185.464 269.504 183.16C267.029 180.856 263.403 179.704 258.624 179.704H234.56V167.928H256.192C260.715 167.928 264.171 166.947 266.56 164.984C268.949 162.936 270.144 159.992 270.144 156.152C270.144 152.653 268.907 149.795 266.432 147.576C264.043 145.272 260.629 144.12 256.192 144.12H235.072L239.68 139.896ZM317.898 220.792C313.034 220.792 308.853 219.939 305.354 218.232C301.855 216.525 299.167 214.093 297.29 210.936C295.498 207.693 294.602 203.853 294.602 199.416C294.602 195.32 295.541 191.693 297.418 188.536C299.295 185.293 301.983 182.733 305.482 180.856C308.981 178.979 313.119 178.04 317.898 178.04C323.871 178.04 328.65 179.405 332.234 182.136C335.903 184.781 338.463 188.451 339.914 193.144H332.746V177.144C332.746 174.499 331.85 172.067 330.058 169.848C328.266 167.629 325.109 166.52 320.586 166.52C318.197 166.52 315.551 166.819 312.65 167.416C309.834 167.928 306.89 168.867 303.818 170.232L299.978 160.376C303.477 158.669 307.103 157.389 310.858 156.536C314.613 155.683 318.282 155.256 321.866 155.256C327.242 155.256 331.679 156.237 335.178 158.2C338.677 160.163 341.279 162.808 342.986 166.136C344.693 169.379 345.546 173.048 345.546 177.144V219H336.33L333.13 207.608L339.914 205.688C338.378 210.723 335.647 214.52 331.722 217.08C327.797 219.555 323.189 220.792 317.898 220.792ZM320.202 209.4C323.957 209.4 326.986 208.547 329.29 206.84C331.594 205.048 332.746 202.573 332.746 199.416C332.746 196.173 331.594 193.699 329.29 191.992C326.986 190.285 323.957 189.432 320.202 189.432C316.447 189.432 313.418 190.285 311.114 191.992C308.81 193.699 307.658 196.173 307.658 199.416C307.658 202.573 308.81 205.048 311.114 206.84C313.418 208.547 316.447 209.4 320.202 209.4ZM380.785 220.28C376.433 220.28 372.124 219.256 367.857 217.208C363.676 215.16 360.22 211.661 357.489 206.712L367.217 200.312C369.606 203.469 371.868 205.773 374.001 207.224C376.134 208.589 378.908 209.272 382.321 209.272C385.052 209.272 387.142 208.589 388.593 207.224C390.129 205.773 390.897 204.024 390.897 201.976C390.897 200.611 390.513 199.416 389.745 198.392C389.062 197.368 387.825 196.429 386.033 195.576C384.241 194.637 381.681 193.741 378.353 192.888C372.209 191.267 367.473 189.133 364.145 186.488C360.817 183.843 359.153 179.661 359.153 173.944C359.153 170.531 360.006 167.416 361.713 164.6C363.42 161.784 365.894 159.523 369.137 157.816C372.38 156.109 376.22 155.256 380.657 155.256C385.948 155.256 390.47 156.365 394.225 158.584C397.98 160.717 400.924 163.277 403.057 166.264L393.201 173.56C392.006 172.024 390.257 170.531 387.953 169.08C385.649 167.544 382.748 166.776 379.249 166.776C377.116 166.776 375.153 167.373 373.361 168.568C371.569 169.763 370.673 171.427 370.673 173.56C370.673 175.693 371.484 177.443 373.105 178.808C374.812 180.088 377.884 181.24 382.321 182.264C389.83 184.056 395.164 186.403 398.321 189.304C401.478 192.12 403.057 195.875 403.057 200.568C403.057 204.664 401.99 208.205 399.857 211.192C397.809 214.093 395.078 216.355 391.665 217.976C388.337 219.512 384.71 220.28 380.785 220.28ZM433.023 220.792C428.159 220.792 423.978 219.939 420.479 218.232C416.98 216.525 414.292 214.093 412.415 210.936C410.623 207.693 409.727 203.853 409.727 199.416C409.727 195.32 410.666 191.693 412.543 188.536C414.42 185.293 417.108 182.733 420.607 180.856C424.106 178.979 428.244 178.04 433.023 178.04C438.996 178.04 443.775 179.405 447.359 182.136C451.028 184.781 453.588 188.451 455.039 193.144H447.871V177.144C447.871 174.499 446.975 172.067 445.183 169.848C443.391 167.629 440.234 166.52 435.711 166.52C433.322 166.52 430.676 166.819 427.775 167.416C424.959 167.928 422.015 168.867 418.943 170.232L415.103 160.376C418.602 158.669 422.228 157.389 425.983 156.536C429.738 155.683 433.407 155.256 436.991 155.256C442.367 155.256 446.804 156.237 450.303 158.2C453.802 160.163 456.404 162.808 458.111 166.136C459.818 169.379 460.671 173.048 460.671 177.144V219H451.455L448.255 207.608L455.039 205.688C453.503 210.723 450.772 214.52 446.847 217.08C442.922 219.555 438.314 220.792 433.023 220.792ZM435.327 209.4C439.082 209.4 442.111 208.547 444.415 206.84C446.719 205.048 447.871 202.573 447.871 199.416C447.871 196.173 446.719 193.699 444.415 191.992C442.111 190.285 439.082 189.432 435.327 189.432C431.572 189.432 428.543 190.285 426.239 191.992C423.935 193.699 422.783 196.173 422.783 199.416C422.783 202.573 423.935 205.048 426.239 206.84C428.543 208.547 431.572 209.4 435.327 209.4ZM486.084 219.64C483.865 219.64 481.903 219.128 480.196 218.104C478.489 216.995 477.124 215.416 476.1 213.368C475.161 211.32 474.692 208.803 474.692 205.816V131.832H487.236V201.336C487.236 203.981 487.876 205.773 489.156 206.712C490.521 207.651 492.057 208.12 493.764 208.12V218.36C492.655 218.787 491.46 219.085 490.18 219.256C488.9 219.512 487.535 219.64 486.084 219.64ZM527.482 220.152C522.021 220.152 517.669 218.573 514.426 215.416C511.269 212.173 509.69 207.181 509.69 200.44V157.304V156.536L512.122 142.456H522.49V200.696C522.49 203.085 523.087 204.877 524.282 206.072C525.562 207.267 527.141 207.864 529.018 207.864C530.469 207.864 531.749 207.779 532.858 207.608C533.967 207.437 534.949 207.224 535.802 206.968V218.872C534.693 219.213 533.455 219.512 532.09 219.768C530.81 220.024 529.274 220.152 527.482 220.152ZM500.09 168.312V156.536H535.802V168.312H500.09ZM563.626 178.808H581.674C587.306 178.808 591.829 177.272 595.242 174.2C598.655 171.128 600.362 166.861 600.362 161.4C600.362 155.597 598.655 151.245 595.242 148.344C591.914 145.357 587.434 143.864 581.802 143.864H563.626L565.93 140.92V219H553.13V131.832H583.978C589.951 131.832 595.157 133.155 599.594 135.8C604.031 138.445 607.487 141.987 609.962 146.424C612.437 150.861 613.674 155.853 613.674 161.4C613.674 166.861 612.437 171.853 609.962 176.376C607.487 180.813 603.989 184.355 599.466 187C595.029 189.56 589.823 190.84 583.85 190.84H563.626V178.808ZM641.273 220.792C636.409 220.792 632.228 219.939 628.729 218.232C625.23 216.525 622.542 214.093 620.665 210.936C618.873 207.693 617.977 203.853 617.977 199.416C617.977 195.32 618.916 191.693 620.793 188.536C622.67 185.293 625.358 182.733 628.857 180.856C632.356 178.979 636.494 178.04 641.273 178.04C647.246 178.04 652.025 179.405 655.609 182.136C659.278 184.781 661.838 188.451 663.289 193.144H656.121V177.144C656.121 174.499 655.225 172.067 653.433 169.848C651.641 167.629 648.484 166.52 643.961 166.52C641.572 166.52 638.926 166.819 636.025 167.416C633.209 167.928 630.265 168.867 627.193 170.232L623.353 160.376C626.852 158.669 630.478 157.389 634.233 156.536C637.988 155.683 641.657 155.256 645.241 155.256C650.617 155.256 655.054 156.237 658.553 158.2C662.052 160.163 664.654 162.808 666.361 166.136C668.068 169.379 668.921 173.048 668.921 177.144V219H659.705L656.505 207.608L663.289 205.688C661.753 210.723 659.022 214.52 655.097 217.08C651.172 219.555 646.564 220.792 641.273 220.792ZM643.577 209.4C647.332 209.4 650.361 208.547 652.665 206.84C654.969 205.048 656.121 202.573 656.121 199.416C656.121 196.173 654.969 193.699 652.665 191.992C650.361 190.285 647.332 189.432 643.577 189.432C639.822 189.432 636.793 190.285 634.489 191.992C632.185 193.699 631.033 196.173 631.033 199.416C631.033 202.573 632.185 205.048 634.489 206.84C636.793 208.547 639.822 209.4 643.577 209.4ZM704.16 220.28C699.808 220.28 695.499 219.256 691.232 217.208C687.051 215.16 683.595 211.661 680.864 206.712L690.592 200.312C692.981 203.469 695.243 205.773 697.376 207.224C699.509 208.589 702.283 209.272 705.696 209.272C708.427 209.272 710.517 208.589 711.968 207.224C713.504 205.773 714.272 204.024 714.272 201.976C714.272 200.611 713.888 199.416 713.12 198.392C712.437 197.368 711.2 196.429 709.408 195.576C707.616 194.637 705.056 193.741 701.728 192.888C695.584 191.267 690.848 189.133 687.52 186.488C684.192 183.843 682.528 179.661 682.528 173.944C682.528 170.531 683.381 167.416 685.088 164.6C686.795 161.784 689.269 159.523 692.512 157.816C695.755 156.109 699.595 155.256 704.032 155.256C709.323 155.256 713.845 156.365 717.6 158.584C721.355 160.717 724.299 163.277 726.432 166.264L716.576 173.56C715.381 172.024 713.632 170.531 711.328 169.08C709.024 167.544 706.123 166.776 702.624 166.776C700.491 166.776 698.528 167.373 696.736 168.568C694.944 169.763 694.048 171.427 694.048 173.56C694.048 175.693 694.859 177.443 696.48 178.808C698.187 180.088 701.259 181.24 705.696 182.264C713.205 184.056 718.539 186.403 721.696 189.304C724.853 192.12 726.432 195.875 726.432 200.568C726.432 204.664 725.365 208.205 723.232 211.192C721.184 214.093 718.453 216.355 715.04 217.976C711.712 219.512 708.085 220.28 704.16 220.28ZM757.535 220.28C753.183 220.28 748.874 219.256 744.607 217.208C740.426 215.16 736.97 211.661 734.239 206.712L743.967 200.312C746.356 203.469 748.618 205.773 750.751 207.224C752.884 208.589 755.658 209.272 759.071 209.272C761.802 209.272 763.892 208.589 765.343 207.224C766.879 205.773 767.647 204.024 767.647 201.976C767.647 200.611 767.263 199.416 766.495 198.392C765.812 197.368 764.575 196.429 762.783 195.576C760.991 194.637 758.431 193.741 755.103 192.888C748.959 191.267 744.223 189.133 740.895 186.488C737.567 183.843 735.903 179.661 735.903 173.944C735.903 170.531 736.756 167.416 738.463 164.6C740.17 161.784 742.644 159.523 745.887 157.816C749.13 156.109 752.97 155.256 757.407 155.256C762.698 155.256 767.22 156.365 770.975 158.584C774.73 160.717 777.674 163.277 779.807 166.264L769.951 173.56C768.756 172.024 767.007 170.531 764.703 169.08C762.399 167.544 759.498 166.776 755.999 166.776C753.866 166.776 751.903 167.373 750.111 168.568C748.319 169.763 747.423 171.427 747.423 173.56C747.423 175.693 748.234 177.443 749.855 178.808C751.562 180.088 754.634 181.24 759.071 182.264C766.58 184.056 771.914 186.403 775.071 189.304C778.228 192.12 779.807 195.875 779.807 200.568C779.807 204.664 778.74 208.205 776.607 211.192C774.559 214.093 771.828 216.355 768.415 217.976C765.087 219.512 761.46 220.28 757.535 220.28Z" fill="#66FF00"/>
</mask>
<g mask="url(#mask6_41_2)">
<rect x="-80" y="-81" width="1024" height="512" rx="16" fill="url(#paint6_linear_41_2)" fill-opacity="0.85"/>
</g>
<defs>
<linearGradient id="paint0_linear_41_2" x1="-165" y1="-150.5" x2="820.802" y2="519.277" gradientUnits="userSpaceOnUse">
<stop offset="0.119221" stop-color="#485466"/>
<stop offset="0.151498" stop-color="#485466"/>
<stop offset="0.691591" stop-color="#55647D"/>
</linearGradient>
<linearGradient id="paint1_linear_41_2" x1="-165" y1="-150.5" x2="820.802" y2="519.277" gradientUnits="userSpaceOnUse">
<stop offset="0.119221" stop-color="#485466"/>
<stop offset="0.151498" stop-color="#485466"/>
<stop offset="0.691591" stop-color="#1A4892"/>
</linearGradient>
<linearGradient id="paint2_linear_41_2" x1="-165" y1="-150.5" x2="820.802" y2="519.277" gradientUnits="userSpaceOnUse">
<stop offset="0.119221" stop-color="#485466"/>
<stop offset="0.151498" stop-color="#485466"/>
<stop offset="0.691591" stop-color="#155DD3"/>
</linearGradient>
<linearGradient id="paint3_linear_41_2" x1="-165" y1="-150.5" x2="820.802" y2="519.277" gradientUnits="userSpaceOnUse">
<stop offset="0.119221" stop-color="#6B88B8"/>
<stop offset="0.264423" stop-color="#5A76A2"/>
<stop offset="0.432692" stop-color="#155DD3"/>
</linearGradient>
<linearGradient id="paint4_linear_41_2" x1="-165" y1="-150.5" x2="820.802" y2="519.277" gradientUnits="userSpaceOnUse">
<stop offset="0.119221" stop-color="#485466"/>
<stop offset="0.151498" stop-color="#485466"/>
<stop offset="0.691591" stop-color="#155DD3"/>
</linearGradient>
<linearGradient id="paint5_linear_41_2" x1="-165" y1="-150.5" x2="820.802" y2="519.277" gradientUnits="userSpaceOnUse">
<stop offset="0.119221" stop-color="#485466"/>
<stop offset="0.151498" stop-color="#485466"/>
<stop offset="0.691591" stop-color="#155DD3"/>
</linearGradient>
<linearGradient id="paint6_linear_41_2" x1="-165" y1="-150.5" x2="820.802" y2="519.277" gradientUnits="userSpaceOnUse">
<stop offset="0.119221" stop-color="#485466"/>
<stop offset="0.151498" stop-color="#485466"/>
<stop offset="0.691591" stop-color="#1A4892"/>
</linearGradient>
</defs>
</svg>
