<svg width="707" height="198" viewBox="0 0 707 198" fill="none" xmlns="http://www.w3.org/2000/svg">
<mask id="mask0_46_4" style="mask-type:alpha" maskUnits="userSpaceOnUse" x="39" y="98" width="70" height="80">
<path d="M71.5 99.4434C73.047 98.5502 74.953 98.5502 76.5 99.4434L106.141 116.557C107.688 117.45 108.641 119.1 108.641 120.887V155.113C108.641 156.9 107.688 158.55 106.141 159.443L76.5 176.557C74.953 177.45 73.047 177.45 71.5 176.557L41.859 159.443C40.312 158.55 39.359 156.9 39.359 155.113V120.887C39.359 119.1 40.312 117.45 41.859 116.557L71.5 99.4434Z" fill="#D9D9D9"/>
</mask>
<g mask="url(#mask0_46_4)">
<rect x="-158" y="-142" width="1024" height="512" rx="16" fill="url(#paint0_linear_46_4)" fill-opacity="0.85"/>
</g>
<mask id="mask1_46_4" style="mask-type:alpha" maskUnits="userSpaceOnUse" x="5" y="118" width="70" height="80">
<path d="M37.5 119.443C39.047 118.55 40.953 118.55 42.5 119.443L72.141 136.557C73.688 137.45 74.641 139.1 74.641 140.887V175.113C74.641 176.9 73.688 178.55 72.141 179.443L42.5 196.557C40.953 197.45 39.047 197.45 37.5 196.557L7.85898 179.443C6.31197 178.55 5.35898 176.9 5.35898 175.113L5.35898 140.887C5.35898 139.1 6.31198 137.45 7.85898 136.557L37.5 119.443Z" fill="#D9D9D9"/>
</mask>
<g mask="url(#mask1_46_4)">
<rect x="-158" y="-142" width="1024" height="512" rx="16" fill="url(#paint1_linear_46_4)" fill-opacity="0.75"/>
</g>
<mask id="mask2_46_4" style="mask-type:alpha" maskUnits="userSpaceOnUse" x="5" y="79" width="70" height="80">
<path d="M37.5 80.4434C39.047 79.5502 40.953 79.5502 42.5 80.4434L72.141 97.5566C73.688 98.4498 74.641 100.1 74.641 101.887V136.113C74.641 137.9 73.688 139.55 72.141 140.443L42.5 157.557C40.953 158.45 39.047 158.45 37.5 157.557L7.85898 140.443C6.31197 139.55 5.35898 137.9 5.35898 136.113L5.35898 101.887C5.35898 100.1 6.31198 98.4498 7.85898 97.5566L37.5 80.4434Z" fill="#D9D9D9"/>
</mask>
<g mask="url(#mask2_46_4)">
<rect x="-158" y="-142" width="1024" height="512" rx="16" fill="url(#paint2_linear_46_4)" fill-opacity="0.85"/>
</g>
<mask id="mask3_46_4" style="mask-type:alpha" maskUnits="userSpaceOnUse" x="5" y="0" width="70" height="80">
<path d="M37.5 1.44337C39.047 0.55021 40.953 0.550212 42.5 1.44338L72.141 18.5566C73.688 19.4498 74.641 21.1004 74.641 22.8868V57.1132C74.641 58.8996 73.688 60.5502 72.141 61.4434L42.5 78.5566C40.953 79.4498 39.047 79.4498 37.5 78.5566L7.85898 61.4434C6.31197 60.5502 5.35898 58.8996 5.35898 57.1132L5.35898 22.8867C5.35898 21.1004 6.31198 19.4498 7.85898 18.5566L37.5 1.44337Z" fill="#D9D9D9"/>
</mask>
<g mask="url(#mask3_46_4)">
<rect x="-158" y="-142" width="1024" height="512" rx="16" fill="url(#paint3_linear_46_4)" fill-opacity="0.85"/>
</g>
<mask id="mask4_46_4" style="mask-type:alpha" maskUnits="userSpaceOnUse" x="39" y="59" width="70" height="80">
<path d="M71.5 60.4434C73.047 59.5502 74.953 59.5502 76.5 60.4434L106.141 77.5566C107.688 78.4498 108.641 80.1004 108.641 81.8868V116.113C108.641 117.9 107.688 119.55 106.141 120.443L76.5 137.557C74.953 138.45 73.047 138.45 71.5 137.557L41.859 120.443C40.312 119.55 39.359 117.9 39.359 116.113V81.8867C39.359 80.1004 40.312 78.4498 41.859 77.5566L71.5 60.4434Z" fill="#D9D9D9"/>
</mask>
<g mask="url(#mask4_46_4)">
<rect x="-158" y="-142" width="1024" height="512" rx="16" fill="url(#paint4_linear_46_4)" fill-opacity="0.85"/>
</g>
<mask id="mask5_46_4" style="mask-type:alpha" maskUnits="userSpaceOnUse" x="5" y="39" width="70" height="80">
<path d="M37.5 40.4434C39.047 39.5502 40.953 39.5502 42.5 40.4434L72.141 57.5566C73.688 58.4498 74.641 60.1004 74.641 61.8868V96.1132C74.641 97.8996 73.688 99.5502 72.141 100.443L42.5 117.557C40.953 118.45 39.047 118.45 37.5 117.557L7.85898 100.443C6.31197 99.5502 5.35898 97.8996 5.35898 96.1132L5.35898 61.8867C5.35898 60.1004 6.31198 58.4498 7.85898 57.5566L37.5 40.4434Z" fill="#D9D9D9"/>
</mask>
<g mask="url(#mask5_46_4)">
<rect x="-158" y="-142" width="1024" height="512" rx="16" fill="url(#paint5_linear_46_4)" fill-opacity="0.85"/>
</g>
<mask id="mask6_46_4" style="mask-type:alpha" maskUnits="userSpaceOnUse" x="148" y="70" width="554" height="90">
<path opacity="0.9" d="M148.88 158V70.832H177.808C183.696 70.832 188.645 71.6853 192.656 73.392C196.752 75.0133 199.867 77.5733 202 81.072C204.133 84.4853 205.2 88.8373 205.2 94.128C205.2 98.5653 204.091 102.491 201.872 105.904C199.653 109.317 196.709 111.963 193.04 113.84C189.456 115.717 185.573 116.656 181.392 116.656L182.288 110C187.493 110 192.016 110.939 195.856 112.816C199.781 114.608 202.853 117.253 205.072 120.752C207.291 124.251 208.4 128.517 208.4 133.552C208.4 141.488 205.925 147.547 200.976 151.728C196.112 155.909 189.115 158 179.984 158H148.88ZM161.68 78.896V149.04L156.56 145.712H180.368C185.147 145.712 188.816 144.475 191.376 142C194.021 139.44 195.344 136.197 195.344 132.272C195.344 127.835 194.064 124.464 191.504 122.16C189.029 119.856 185.403 118.704 180.624 118.704H156.56V106.928H178.192C182.715 106.928 186.171 105.947 188.56 103.984C190.949 101.936 192.144 98.992 192.144 95.152C192.144 91.6533 190.907 88.7947 188.432 86.576C186.043 84.272 182.629 83.12 178.192 83.12H157.072L161.68 78.896ZM239.898 159.792C235.034 159.792 230.853 158.939 227.354 157.232C223.855 155.525 221.167 153.093 219.29 149.936C217.498 146.693 216.602 142.853 216.602 138.416C216.602 134.32 217.541 130.693 219.418 127.536C221.295 124.293 223.983 121.733 227.482 119.856C230.981 117.979 235.119 117.04 239.898 117.04C245.871 117.04 250.65 118.405 254.234 121.136C257.903 123.781 260.463 127.451 261.914 132.144H254.746V116.144C254.746 113.499 253.85 111.067 252.058 108.848C250.266 106.629 247.109 105.52 242.586 105.52C240.197 105.52 237.551 105.819 234.65 106.416C231.834 106.928 228.89 107.867 225.818 109.232L221.978 99.376C225.477 97.6693 229.103 96.3893 232.858 95.536C236.613 94.6827 240.282 94.256 243.866 94.256C249.242 94.256 253.679 95.2373 257.178 97.2C260.677 99.1627 263.279 101.808 264.986 105.136C266.693 108.379 267.546 112.048 267.546 116.144V158H258.33L255.13 146.608L261.914 144.688C260.378 149.723 257.647 153.52 253.722 156.08C249.797 158.555 245.189 159.792 239.898 159.792ZM242.202 148.4C245.957 148.4 248.986 147.547 251.29 145.84C253.594 144.048 254.746 141.573 254.746 138.416C254.746 135.173 253.594 132.699 251.29 130.992C248.986 129.285 245.957 128.432 242.202 128.432C238.447 128.432 235.418 129.285 233.114 130.992C230.81 132.699 229.658 135.173 229.658 138.416C229.658 141.573 230.81 144.048 233.114 145.84C235.418 147.547 238.447 148.4 242.202 148.4ZM302.785 159.28C298.433 159.28 294.124 158.256 289.857 156.208C285.676 154.16 282.22 150.661 279.489 145.712L289.217 139.312C291.606 142.469 293.868 144.773 296.001 146.224C298.134 147.589 300.908 148.272 304.321 148.272C307.052 148.272 309.142 147.589 310.593 146.224C312.129 144.773 312.897 143.024 312.897 140.976C312.897 139.611 312.513 138.416 311.745 137.392C311.062 136.368 309.825 135.429 308.033 134.576C306.241 133.637 303.681 132.741 300.353 131.888C294.209 130.267 289.473 128.133 286.145 125.488C282.817 122.843 281.153 118.661 281.153 112.944C281.153 109.531 282.006 106.416 283.713 103.6C285.42 100.784 287.894 98.5227 291.137 96.816C294.38 95.1093 298.22 94.256 302.657 94.256C307.948 94.256 312.47 95.3653 316.225 97.584C319.98 99.7173 322.924 102.277 325.057 105.264L315.201 112.56C314.006 111.024 312.257 109.531 309.953 108.08C307.649 106.544 304.748 105.776 301.249 105.776C299.116 105.776 297.153 106.373 295.361 107.568C293.569 108.763 292.673 110.427 292.673 112.56C292.673 114.693 293.484 116.443 295.105 117.808C296.812 119.088 299.884 120.24 304.321 121.264C311.83 123.056 317.164 125.403 320.321 128.304C323.478 131.12 325.057 134.875 325.057 139.568C325.057 143.664 323.99 147.205 321.857 150.192C319.809 153.093 317.078 155.355 313.665 156.976C310.337 158.512 306.71 159.28 302.785 159.28ZM355.023 159.792C350.159 159.792 345.978 158.939 342.479 157.232C338.98 155.525 336.292 153.093 334.415 149.936C332.623 146.693 331.727 142.853 331.727 138.416C331.727 134.32 332.666 130.693 334.543 127.536C336.42 124.293 339.108 121.733 342.607 119.856C346.106 117.979 350.244 117.04 355.023 117.04C360.996 117.04 365.775 118.405 369.359 121.136C373.028 123.781 375.588 127.451 377.039 132.144H369.871V116.144C369.871 113.499 368.975 111.067 367.183 108.848C365.391 106.629 362.234 105.52 357.711 105.52C355.322 105.52 352.676 105.819 349.775 106.416C346.959 106.928 344.015 107.867 340.943 109.232L337.103 99.376C340.602 97.6693 344.228 96.3893 347.983 95.536C351.738 94.6827 355.407 94.256 358.991 94.256C364.367 94.256 368.804 95.2373 372.303 97.2C375.802 99.1627 378.404 101.808 380.111 105.136C381.818 108.379 382.671 112.048 382.671 116.144V158H373.455L370.255 146.608L377.039 144.688C375.503 149.723 372.772 153.52 368.847 156.08C364.922 158.555 360.314 159.792 355.023 159.792ZM357.327 148.4C361.082 148.4 364.111 147.547 366.415 145.84C368.719 144.048 369.871 141.573 369.871 138.416C369.871 135.173 368.719 132.699 366.415 130.992C364.111 129.285 361.082 128.432 357.327 128.432C353.572 128.432 350.543 129.285 348.239 130.992C345.935 132.699 344.783 135.173 344.783 138.416C344.783 141.573 345.935 144.048 348.239 145.84C350.543 147.547 353.572 148.4 357.327 148.4ZM408.084 158.64C405.865 158.64 403.903 158.128 402.196 157.104C400.489 155.995 399.124 154.416 398.1 152.368C397.161 150.32 396.692 147.803 396.692 144.816V70.832H409.236V140.336C409.236 142.981 409.876 144.773 411.156 145.712C412.521 146.651 414.057 147.12 415.764 147.12V157.36C414.655 157.787 413.46 158.085 412.18 158.256C410.9 158.512 409.535 158.64 408.084 158.64ZM449.482 159.152C444.021 159.152 439.669 157.573 436.426 154.416C433.269 151.173 431.69 146.181 431.69 139.44V96.304V95.536L434.122 81.456H444.49V139.696C444.49 142.085 445.087 143.877 446.282 145.072C447.562 146.267 449.141 146.864 451.018 146.864C452.469 146.864 453.749 146.779 454.858 146.608C455.967 146.437 456.949 146.224 457.802 145.968V157.872C456.693 158.213 455.455 158.512 454.09 158.768C452.81 159.024 451.274 159.152 449.482 159.152ZM422.09 107.312V95.536H457.802V107.312H422.09ZM485.626 117.808H503.674C509.306 117.808 513.829 116.272 517.242 113.2C520.655 110.128 522.362 105.861 522.362 100.4C522.362 94.5973 520.655 90.2453 517.242 87.344C513.914 84.3573 509.434 82.864 503.802 82.864H485.626L487.93 79.92V158H475.13V70.832H505.978C511.951 70.832 517.157 72.1547 521.594 74.8C526.031 77.4453 529.487 80.9867 531.962 85.424C534.437 89.8613 535.674 94.8533 535.674 100.4C535.674 105.861 534.437 110.853 531.962 115.376C529.487 119.813 525.989 123.355 521.466 126C517.029 128.56 511.823 129.84 505.85 129.84H485.626V117.808ZM563.273 159.792C558.409 159.792 554.228 158.939 550.729 157.232C547.23 155.525 544.542 153.093 542.665 149.936C540.873 146.693 539.977 142.853 539.977 138.416C539.977 134.32 540.916 130.693 542.793 127.536C544.67 124.293 547.358 121.733 550.857 119.856C554.356 117.979 558.494 117.04 563.273 117.04C569.246 117.04 574.025 118.405 577.609 121.136C581.278 123.781 583.838 127.451 585.289 132.144H578.121V116.144C578.121 113.499 577.225 111.067 575.433 108.848C573.641 106.629 570.484 105.52 565.961 105.52C563.572 105.52 560.926 105.819 558.025 106.416C555.209 106.928 552.265 107.867 549.193 109.232L545.353 99.376C548.852 97.6693 552.478 96.3893 556.233 95.536C559.988 94.6827 563.657 94.256 567.241 94.256C572.617 94.256 577.054 95.2373 580.553 97.2C584.052 99.1627 586.654 101.808 588.361 105.136C590.068 108.379 590.921 112.048 590.921 116.144V158H581.705L578.505 146.608L585.289 144.688C583.753 149.723 581.022 153.52 577.097 156.08C573.172 158.555 568.564 159.792 563.273 159.792ZM565.577 148.4C569.332 148.4 572.361 147.547 574.665 145.84C576.969 144.048 578.121 141.573 578.121 138.416C578.121 135.173 576.969 132.699 574.665 130.992C572.361 129.285 569.332 128.432 565.577 128.432C561.822 128.432 558.793 129.285 556.489 130.992C554.185 132.699 553.033 135.173 553.033 138.416C553.033 141.573 554.185 144.048 556.489 145.84C558.793 147.547 561.822 148.4 565.577 148.4ZM626.16 159.28C621.808 159.28 617.499 158.256 613.232 156.208C609.051 154.16 605.595 150.661 602.864 145.712L612.592 139.312C614.981 142.469 617.243 144.773 619.376 146.224C621.509 147.589 624.283 148.272 627.696 148.272C630.427 148.272 632.517 147.589 633.968 146.224C635.504 144.773 636.272 143.024 636.272 140.976C636.272 139.611 635.888 138.416 635.12 137.392C634.437 136.368 633.2 135.429 631.408 134.576C629.616 133.637 627.056 132.741 623.728 131.888C617.584 130.267 612.848 128.133 609.52 125.488C606.192 122.843 604.528 118.661 604.528 112.944C604.528 109.531 605.381 106.416 607.088 103.6C608.795 100.784 611.269 98.5227 614.512 96.816C617.755 95.1093 621.595 94.256 626.032 94.256C631.323 94.256 635.845 95.3653 639.6 97.584C643.355 99.7173 646.299 102.277 648.432 105.264L638.576 112.56C637.381 111.024 635.632 109.531 633.328 108.08C631.024 106.544 628.123 105.776 624.624 105.776C622.491 105.776 620.528 106.373 618.736 107.568C616.944 108.763 616.048 110.427 616.048 112.56C616.048 114.693 616.859 116.443 618.48 117.808C620.187 119.088 623.259 120.24 627.696 121.264C635.205 123.056 640.539 125.403 643.696 128.304C646.853 131.12 648.432 134.875 648.432 139.568C648.432 143.664 647.365 147.205 645.232 150.192C643.184 153.093 640.453 155.355 637.04 156.976C633.712 158.512 630.085 159.28 626.16 159.28ZM679.535 159.28C675.183 159.28 670.874 158.256 666.607 156.208C662.426 154.16 658.97 150.661 656.239 145.712L665.967 139.312C668.356 142.469 670.618 144.773 672.751 146.224C674.884 147.589 677.658 148.272 681.071 148.272C683.802 148.272 685.892 147.589 687.343 146.224C688.879 144.773 689.647 143.024 689.647 140.976C689.647 139.611 689.263 138.416 688.495 137.392C687.812 136.368 686.575 135.429 684.783 134.576C682.991 133.637 680.431 132.741 677.103 131.888C670.959 130.267 666.223 128.133 662.895 125.488C659.567 122.843 657.903 118.661 657.903 112.944C657.903 109.531 658.756 106.416 660.463 103.6C662.17 100.784 664.644 98.5227 667.887 96.816C671.13 95.1093 674.97 94.256 679.407 94.256C684.698 94.256 689.22 95.3653 692.975 97.584C696.73 99.7173 699.674 102.277 701.807 105.264L691.951 112.56C690.756 111.024 689.007 109.531 686.703 108.08C684.399 106.544 681.498 105.776 677.999 105.776C675.866 105.776 673.903 106.373 672.111 107.568C670.319 108.763 669.423 110.427 669.423 112.56C669.423 114.693 670.234 116.443 671.855 117.808C673.562 119.088 676.634 120.24 681.071 121.264C688.58 123.056 693.914 125.403 697.071 128.304C700.228 131.12 701.807 134.875 701.807 139.568C701.807 143.664 700.74 147.205 698.607 150.192C696.559 153.093 693.828 155.355 690.415 156.976C687.087 158.512 683.46 159.28 679.535 159.28Z" fill="#66FF00"/>
</mask>
<g mask="url(#mask6_46_4)">
<rect x="-158" y="-142" width="1024" height="512" rx="16" fill="url(#paint6_linear_46_4)" fill-opacity="0.85"/>
</g>
<defs>
<linearGradient id="paint0_linear_46_4" x1="-243" y1="-211.5" x2="742.802" y2="458.277" gradientUnits="userSpaceOnUse">
<stop offset="0.119221" stop-color="#485466"/>
<stop offset="0.151498" stop-color="#485466"/>
<stop offset="0.691591" stop-color="#55647D"/>
</linearGradient>
<linearGradient id="paint1_linear_46_4" x1="-243" y1="-211.5" x2="742.802" y2="458.277" gradientUnits="userSpaceOnUse">
<stop offset="0.119221" stop-color="#485466"/>
<stop offset="0.151498" stop-color="#485466"/>
<stop offset="0.691591" stop-color="#1A4892"/>
</linearGradient>
<linearGradient id="paint2_linear_46_4" x1="-243" y1="-211.5" x2="742.802" y2="458.277" gradientUnits="userSpaceOnUse">
<stop offset="0.119221" stop-color="#485466"/>
<stop offset="0.151498" stop-color="#485466"/>
<stop offset="0.691591" stop-color="#155DD3"/>
</linearGradient>
<linearGradient id="paint3_linear_46_4" x1="-243" y1="-211.5" x2="742.802" y2="458.277" gradientUnits="userSpaceOnUse">
<stop offset="0.119221" stop-color="#6B88B8"/>
<stop offset="0.264423" stop-color="#5A76A2"/>
<stop offset="0.432692" stop-color="#155DD3"/>
</linearGradient>
<linearGradient id="paint4_linear_46_4" x1="-243" y1="-211.5" x2="742.802" y2="458.277" gradientUnits="userSpaceOnUse">
<stop offset="0.119221" stop-color="#485466"/>
<stop offset="0.151498" stop-color="#485466"/>
<stop offset="0.691591" stop-color="#155DD3"/>
</linearGradient>
<linearGradient id="paint5_linear_46_4" x1="-243" y1="-211.5" x2="742.802" y2="458.277" gradientUnits="userSpaceOnUse">
<stop offset="0.119221" stop-color="#485466"/>
<stop offset="0.151498" stop-color="#485466"/>
<stop offset="0.691591" stop-color="#155DD3"/>
</linearGradient>
<linearGradient id="paint6_linear_46_4" x1="-243" y1="-211.5" x2="742.802" y2="458.277" gradientUnits="userSpaceOnUse">
<stop offset="0.119221" stop-color="#485466"/>
<stop offset="0.151498" stop-color="#485466"/>
<stop offset="0.691591" stop-color="#1A4892"/>
</linearGradient>
</defs>
</svg>
