<svg width="935" height="223" viewBox="0 0 935 223" fill="none" xmlns="http://www.w3.org/2000/svg">
<path d="M288.748 110.522H241.516V152.25H229.868V60.602H241.516V100.154H288.748V60.602H300.396V152.25H288.748V110.522ZM344.81 85.05C354.709 85.05 362.261 88.506 367.466 95.418C372.074 101.391 374.378 109.498 374.378 119.738C374.378 131.173 371.391 139.877 365.418 145.85C360.298 151.055 353.386 153.658 344.682 153.658C334.613 153.658 326.933 150.287 321.642 143.546C317.034 137.658 314.73 129.722 314.73 119.738C314.73 108.133 317.759 99.2153 323.818 92.986C329.023 87.6953 336.021 85.05 344.81 85.05ZM344.81 94.65C338.837 94.65 334.143 96.9113 330.73 101.434C327.317 105.871 325.61 111.973 325.61 119.738C325.61 127.845 327.53 134.031 331.37 138.298C334.698 142.053 339.135 143.93 344.682 143.93C350.57 143.93 355.135 141.797 358.378 137.53C361.706 133.263 363.37 127.333 363.37 119.738C363.37 111.375 361.493 104.975 357.738 100.538C354.495 96.6127 350.186 94.65 344.81 94.65ZM399.197 60.602V152.25H388.701V60.602H399.197ZM427.072 60.602V152.25H416.576V60.602H427.072ZM470.435 85.05C480.334 85.05 487.886 88.506 493.091 95.418C497.699 101.391 500.003 109.498 500.003 119.738C500.003 131.173 497.016 139.877 491.043 145.85C485.923 151.055 479.011 153.658 470.307 153.658C460.238 153.658 452.558 150.287 447.267 143.546C442.659 137.658 440.355 129.722 440.355 119.738C440.355 108.133 443.384 99.2153 449.443 92.986C454.648 87.6953 461.646 85.05 470.435 85.05ZM470.435 94.65C464.462 94.65 459.768 96.9113 456.355 101.434C452.942 105.871 451.235 111.973 451.235 119.738C451.235 127.845 453.155 134.031 456.995 138.298C460.323 142.053 464.76 143.93 470.307 143.93C476.195 143.93 480.76 141.797 484.003 137.53C487.331 133.263 488.995 127.333 488.995 119.738C488.995 111.375 487.118 104.975 483.363 100.538C480.12 96.6127 475.811 94.65 470.435 94.65ZM575.382 152.25H563.478L550.038 100.538L537.366 152.25H525.59L506.518 86.458H518.038L531.606 137.658L544.15 86.458H556.95L569.878 137.658L582.934 86.458H594.71L575.382 152.25Z" fill="#07BA52"/>
<path d="M607.636 152.25V60.602H642.964C655.337 60.602 664.852 65.21 671.508 74.426C677.311 82.5327 680.212 93.1993 680.212 106.426C680.212 121.615 676.457 133.306 668.948 141.498C662.377 148.666 653.716 152.25 642.964 152.25H607.636ZM619.284 141.882H640.916C659.348 141.882 668.564 130.063 668.564 106.426C668.564 82.7887 659.348 70.97 640.916 70.97H619.284V141.882ZM754.45 143.418V151.866C751.549 152.89 749.287 153.402 747.666 153.402C740.839 153.402 737.127 150.287 736.53 144.058C731.837 150.458 724.37 153.658 714.13 153.658C707.047 153.658 701.543 151.695 697.618 147.77C694.205 144.357 692.498 139.962 692.498 134.586C692.498 128.442 694.674 123.706 699.026 120.378C701.501 118.501 706.663 116.666 714.514 114.874L736.018 110.01L736.146 104.506C736.146 97.9353 731.197 94.65 721.298 94.65C711.826 94.65 706.749 98.49 706.066 106.17H695.442C695.698 100.367 697.149 95.93 699.794 92.858C704.317 87.6527 711.655 85.05 721.81 85.05C738.279 85.05 746.514 91.0233 746.514 102.97V139.706C746.514 142.949 747.922 144.57 750.738 144.57C751.079 144.57 751.975 144.314 753.426 143.802C753.938 143.631 754.279 143.503 754.45 143.418ZM736.146 118.586L719.25 122.938C713.191 124.474 709.01 126.053 706.706 127.674C704.487 129.295 703.378 131.557 703.378 134.458C703.378 141.199 707.73 144.57 716.434 144.57C722.578 144.57 727.783 142.565 732.05 138.554C734.781 136.079 736.146 133.263 736.146 130.106V118.586ZM791.685 86.458V94.906H778.245V138.682C778.245 140.218 778.757 141.541 779.781 142.65C780.89 143.674 782.298 144.186 784.005 144.186C785.626 144.186 788.101 143.802 791.429 143.034L792.581 152.25C787.29 153.189 783.28 153.658 780.549 153.658C772.101 153.658 767.877 150.202 767.877 143.29V94.906H758.917V86.458H767.877V73.018L778.245 68.282V86.458H791.685ZM862.325 143.418V151.866C859.424 152.89 857.162 153.402 855.541 153.402C848.714 153.402 845.002 150.287 844.405 144.058C839.712 150.458 832.245 153.658 822.005 153.658C814.922 153.658 809.418 151.695 805.493 147.77C802.08 144.357 800.373 139.962 800.373 134.586C800.373 128.442 802.549 123.706 806.901 120.378C809.376 118.501 814.538 116.666 822.389 114.874L843.893 110.01L844.021 104.506C844.021 97.9353 839.072 94.65 829.173 94.65C819.701 94.65 814.624 98.49 813.941 106.17H803.317C803.573 100.367 805.024 95.93 807.669 92.858C812.192 87.6527 819.53 85.05 829.685 85.05C846.154 85.05 854.389 91.0233 854.389 102.97V139.706C854.389 142.949 855.797 144.57 858.613 144.57C858.954 144.57 859.85 144.314 861.301 143.802C861.813 143.631 862.154 143.503 862.325 143.418ZM844.021 118.586L827.125 122.938C821.066 124.474 816.885 126.053 814.581 127.674C812.362 129.295 811.253 131.557 811.253 134.458C811.253 141.199 815.605 144.57 824.309 144.57C830.453 144.57 835.658 142.565 839.925 138.554C842.656 136.079 844.021 133.263 844.021 130.106V118.586Z" fill="#6B6B6B"/>
<circle cx="137" cy="109.25" r="50" fill="#07BA52"/>
<rect x="87" y="59.25" width="50" height="100" fill="#07BA52"/>
<path d="M130.234 105.679C133.819 106.71 133.819 111.789 130.234 112.821H101.286V105.679H130.234Z" fill="#FDFDFD"/>
<path d="M103.812 20.0625C104.531 20.1562 105.297 20.3906 106.109 20.7656C106.922 21.1406 107.672 21.6719 108.359 22.3594C109.078 23.0469 109.672 23.8906 110.141 24.8906C110.609 25.8594 110.844 26.9844 110.844 28.2656C110.844 29.8281 110.609 31.1719 110.141 32.2969C109.672 33.4219 109.078 34.3594 108.359 35.1094C107.672 35.8281 106.906 36.4062 106.062 36.8438C105.25 37.25 104.453 37.5625 103.672 37.7812C102.922 38 102.25 38.1406 101.656 38.2031C101.062 38.2344 100.672 38.25 100.484 38.25H87.5V3.70312H97.4375C98.9062 3.70312 100.328 3.875 101.703 4.21875C103.078 4.5625 104.297 5.10938 105.359 5.85938C106.422 6.60938 107.266 7.59375 107.891 8.8125C108.516 10 108.828 11.4219 108.828 13.0781C108.828 14.0469 108.672 14.9375 108.359 15.75C108.047 16.5312 107.656 17.2188 107.188 17.8125C106.719 18.4062 106.172 18.9062 105.547 19.3125C104.953 19.6875 104.375 19.9375 103.812 20.0625ZM100.156 34.125C101.812 34.125 103.109 33.5938 104.047 32.5312C104.984 31.4688 105.453 30.0469 105.453 28.2656C105.453 26.5781 104.969 25.1562 104 24C103.031 22.8438 101.609 22.2656 99.7344 22.2656H93.125V34.125H100.156ZM97.2969 18.4688C97.9844 18.4688 98.6875 18.4531 99.4062 18.4219C100.125 18.3906 100.797 18.2188 101.422 17.9062C102.047 17.5938 102.547 17.0625 102.922 16.3125C103.328 15.5625 103.531 14.4844 103.531 13.0781C103.531 12.5156 103.453 11.9375 103.297 11.3438C103.141 10.7188 102.828 10.1562 102.359 9.65625C101.891 9.15625 101.219 8.75 100.344 8.4375C99.4688 8.125 98.3125 7.96875 96.875 7.96875H93.125V18.4688H93.3594H97.2969ZM118.297 12.75V11.8125H124.016V26.2031C124.016 27.2969 124.062 28.3281 124.156 29.2969C124.25 30.2344 124.453 31.0625 124.766 31.7812C125.078 32.5 125.547 33.0781 126.172 33.5156C126.797 33.9531 127.625 34.1719 128.656 34.1719C128.969 34.1719 129.406 34.1406 129.969 34.0781C130.531 33.9844 131.094 33.8438 131.656 33.6562C132.25 33.4688 132.797 33.2344 133.297 32.9531C133.828 32.6719 134.219 32.3438 134.469 31.9688V31.6406V31.5938V21.0938V21.0469V11.8125H140.188V38.25H135.078L134.469 35.5312C134.094 35.875 133.625 36.2188 133.062 36.5625C132.5 36.9062 131.875 37.2344 131.188 37.5469C130.531 37.8281 129.844 38.0625 129.125 38.25C128.438 38.4062 127.75 38.4844 127.062 38.4844C126.312 38.4844 125.641 38.4062 125.047 38.25C124.453 38.125 123.891 37.9219 123.359 37.6406C122.859 37.3281 122.375 36.9844 121.906 36.6094C121.438 36.2344 120.969 35.8125 120.5 35.3438C119.969 34.8125 119.547 34.2031 119.234 33.5156C118.922 32.7969 118.688 32.0625 118.531 31.3125C118.406 30.5312 118.328 29.75 118.297 28.9688C118.297 28.1875 118.297 27.4219 118.297 26.6719V12.7031V12.75ZM153.828 38.25H148.109V11.8125H153.828V38.25ZM154.344 3.375C154.344 4.3125 154.016 5.10938 153.359 5.76562C152.703 6.39063 151.906 6.70312 150.969 6.70312C150.031 6.70312 149.234 6.375 148.578 5.71875C147.953 5.0625 147.641 4.28125 147.641 3.375C147.641 2.4375 147.969 1.64062 148.625 0.984375C149.281 0.328125 150.062 0 150.969 0C151.906 0 152.703 0.328125 153.359 0.984375C154.016 1.64062 154.344 2.4375 154.344 3.375ZM167.422 30.1875C167.422 31.25 167.562 32.0938 167.844 32.7188C168.125 33.3125 168.516 33.7656 169.016 34.0781C169.516 34.3594 170.078 34.5469 170.703 34.6406C171.359 34.7344 172.062 34.7812 172.812 34.7812V38.25C172.406 38.3125 171.984 38.3594 171.547 38.3906C171.203 38.4219 170.797 38.4375 170.328 38.4375C169.859 38.4688 169.391 38.4844 168.922 38.4844C168.453 38.4844 167.984 38.4688 167.516 38.4375C167.047 38.4062 166.625 38.3594 166.25 38.2969C165.188 38.0781 164.359 37.6094 163.766 36.8906C163.172 36.1719 162.719 35.375 162.406 34.5C162.094 33.5938 161.891 32.7188 161.797 31.875C161.734 31.0312 161.703 30.375 161.703 29.9062V29.3438V1.82812H167.422V30.1875ZM186.359 30.2344C186.359 31.2969 186.5 32.125 186.781 32.7188C187.062 33.3125 187.453 33.7656 187.953 34.0781C188.484 34.3906 189.062 34.5938 189.688 34.6875C190.344 34.75 191.031 34.7812 191.75 34.7812V38.25C191.344 38.3125 190.938 38.3594 190.531 38.3906C190.188 38.4219 189.766 38.4375 189.266 38.4375C188.797 38.4688 188.328 38.4844 187.859 38.4844C187.391 38.4844 186.906 38.4688 186.406 38.4375C185.938 38.4062 185.531 38.3594 185.188 38.2969C184.125 38.1094 183.297 37.6562 182.703 36.9375C182.109 36.1875 181.656 35.375 181.344 34.5C181.062 33.5938 180.875 32.7188 180.781 31.875C180.719 31.0312 180.688 30.375 180.688 29.9062V15.6562H177.219V11.8125H180.688V4.3125H186.359V11.8125H190.578V15.6562H186.359V30.2344ZM247.625 11.8125L240.172 38.4375H232.859L228.969 23.1562L224.75 38.4375H217.391L210.594 11.8125H216.688L221.047 33.8438L225.969 11.8125H232.109L236.562 33.8438L241.484 11.8125H247.625ZM260.609 38.25H254.891V11.8125H260.609V38.25ZM261.125 3.375C261.125 4.3125 260.797 5.10938 260.141 5.76562C259.484 6.39063 258.688 6.70312 257.75 6.70312C256.812 6.70312 256.016 6.375 255.359 5.71875C254.734 5.0625 254.422 4.28125 254.422 3.375C254.422 2.4375 254.75 1.64062 255.406 0.984375C256.062 0.328125 256.844 0 257.75 0C258.688 0 259.484 0.328125 260.141 0.984375C260.797 1.64062 261.125 2.4375 261.125 3.375ZM276.125 30.2344C276.125 31.2969 276.266 32.125 276.547 32.7188C276.828 33.3125 277.219 33.7656 277.719 34.0781C278.25 34.3906 278.828 34.5938 279.453 34.6875C280.109 34.75 280.797 34.7812 281.516 34.7812V38.25C281.109 38.3125 280.703 38.3594 280.297 38.3906C279.953 38.4219 279.531 38.4375 279.031 38.4375C278.562 38.4688 278.094 38.4844 277.625 38.4844C277.156 38.4844 276.672 38.4688 276.172 38.4375C275.703 38.4062 275.297 38.3594 274.953 38.2969C273.891 38.1094 273.062 37.6562 272.469 36.9375C271.875 36.1875 271.422 35.375 271.109 34.5C270.828 33.5938 270.641 32.7188 270.547 31.875C270.484 31.0312 270.453 30.375 270.453 29.9062V15.6562H266.984V11.8125H270.453V4.3125H276.125V11.8125H280.344V15.6562H276.125V30.2344ZM310.062 38.25H304.344V23.8594C304.344 22.7969 304.297 21.7812 304.203 20.8125C304.109 19.8438 303.891 18.9844 303.547 18.2344C303.203 17.4844 302.734 16.9062 302.141 16.5C301.547 16.0625 300.719 15.8438 299.656 15.8438C299.312 15.8438 298.859 15.8906 298.297 15.9844C297.766 16.0781 297.203 16.2188 296.609 16.4062C296.047 16.5938 295.5 16.8281 294.969 17.1094C294.469 17.3906 294.094 17.7188 293.844 18.0938V18.375V18.4688V28.875V28.9688V38.25H288.172V1.82812H293.844V14.4844C294.219 14.1406 294.688 13.7969 295.25 13.4531C295.844 13.0781 296.484 12.75 297.172 12.4688C297.859 12.1875 298.562 11.9688 299.281 11.8125C300 11.625 300.703 11.5312 301.391 11.5312C302.797 11.5312 303.984 11.8281 304.953 12.4219C305.922 13.0156 306.891 13.7812 307.859 14.7188C308.391 15.25 308.797 15.875 309.078 16.5938C309.391 17.2812 309.609 18.0156 309.734 18.7969C309.891 19.5469 309.984 20.3125 310.016 21.0938C310.047 21.875 310.062 22.6406 310.062 23.3906V37.3125V38.25Z" fill="#525252"/>
<path d="M543.656 175.469C544.594 175.469 545.391 175.797 546.047 176.453C546.703 177.109 547.031 177.891 547.031 178.797C547.031 178.953 547.016 179.328 546.984 179.922C546.953 180.484 546.812 181.172 546.562 181.984C546.312 182.797 545.875 183.703 545.25 184.703C544.656 185.672 543.781 186.641 542.625 187.609H540.422C541.047 187.016 541.562 186.391 541.969 185.734C542.375 185.078 542.703 184.484 542.953 183.953C543.234 183.359 543.469 182.766 543.656 182.172C542.719 182.172 541.922 181.844 541.266 181.188C540.641 180.531 540.328 179.734 540.328 178.797C540.328 177.859 540.641 177.078 541.266 176.453C541.922 175.797 542.719 175.469 543.656 175.469ZM553.406 208.141L555.797 204.344C556.422 204.781 557.156 205.188 558 205.562C558.875 205.938 559.969 206.125 561.281 206.125C563 206.125 564.344 205.859 565.312 205.328C566.281 204.797 566.766 204.016 566.766 202.984C566.766 202.234 566.484 201.641 565.922 201.203C565.359 200.734 564.641 200.344 563.766 200.031C562.922 199.688 562 199.375 561 199.094C560.031 198.781 559.125 198.406 558.281 197.969C556.625 197.094 555.375 196.172 554.531 195.203C553.719 194.234 553.312 192.953 553.312 191.359C553.312 190.047 553.578 188.891 554.109 187.891C554.672 186.891 555.391 186.062 556.266 185.406C557.141 184.719 558.141 184.203 559.266 183.859C560.391 183.516 561.531 183.344 562.688 183.344C564.25 183.344 565.688 183.516 567 183.859C568.312 184.172 569.578 184.719 570.797 185.5L568.969 189.391C568.031 188.859 567.016 188.5 565.922 188.312C564.828 188.094 563.75 187.984 562.688 187.984C561.531 187.984 560.609 188.25 559.922 188.781C559.266 189.281 558.938 190.078 558.938 191.172C558.938 192.016 559.234 192.688 559.828 193.188C560.453 193.656 561.25 194.078 562.219 194.453C563.188 194.828 564.219 195.203 565.312 195.578C566.406 195.953 567.422 196.438 568.359 197.031C569.328 197.594 570.125 198.312 570.75 199.188C571.375 200.062 571.688 201.188 571.688 202.562C571.688 203.906 571.422 205.078 570.891 206.078C570.359 207.078 569.641 207.906 568.734 208.562C567.828 209.219 566.781 209.703 565.594 210.016C564.406 210.328 563.141 210.484 561.797 210.484C560.984 210.484 560.234 210.453 559.547 210.391C558.859 210.359 558.188 210.266 557.531 210.109C556.875 209.953 556.219 209.719 555.562 209.406C554.906 209.094 554.188 208.672 553.406 208.141ZM599.438 202.234C599.438 203.297 599.578 204.125 599.859 204.719C600.141 205.312 600.531 205.766 601.031 206.078C601.562 206.391 602.141 206.594 602.766 206.688C603.422 206.75 604.109 206.781 604.828 206.781V210.25C604.422 210.312 604.016 210.359 603.609 210.391C603.266 210.422 602.844 210.438 602.344 210.438C601.875 210.469 601.406 210.484 600.938 210.484C600.469 210.484 599.984 210.469 599.484 210.438C599.016 210.406 598.609 210.359 598.266 210.297C597.203 210.109 596.375 209.656 595.781 208.938C595.188 208.188 594.734 207.375 594.422 206.5C594.141 205.594 593.953 204.719 593.859 203.875C593.797 203.031 593.766 202.375 593.766 201.906V187.656H590.297V183.812H593.766V176.312H599.438V183.812H603.656V187.656H599.438V202.234ZM622.547 183.531C624.672 183.531 626.547 183.969 628.172 184.844C629.797 185.688 631.125 186.828 632.156 188.266C633.219 189.672 633.969 191.312 634.406 193.188C634.875 195.031 634.969 196.953 634.688 198.953H616.312C616.312 199.953 616.5 200.875 616.875 201.719C617.25 202.562 617.75 203.297 618.375 203.922C619.031 204.516 619.797 204.984 620.672 205.328C621.578 205.672 622.547 205.844 623.578 205.844C623.922 205.844 624.344 205.812 624.844 205.75C625.375 205.656 625.922 205.516 626.484 205.328C627.078 205.109 627.656 204.844 628.219 204.531C628.812 204.219 629.328 203.844 629.766 203.406L631.828 206.547C630.797 207.828 629.594 208.797 628.219 209.453C626.844 210.109 625.094 210.438 622.969 210.438C621.25 210.438 619.641 210.094 618.141 209.406C616.641 208.688 615.359 207.719 614.297 206.5C613.234 205.281 612.391 203.859 611.766 202.234C611.141 200.609 610.828 198.859 610.828 196.984C610.828 195.141 611.141 193.406 611.766 191.781C612.391 190.125 613.219 188.688 614.25 187.469C615.312 186.25 616.562 185.297 618 184.609C619.438 183.891 620.953 183.531 622.547 183.531ZM629.438 194.828C629.438 193.984 629.281 193.156 628.969 192.344C628.656 191.531 628.219 190.797 627.656 190.141C627.125 189.484 626.469 188.969 625.688 188.594C624.906 188.188 624.062 187.969 623.156 187.938C622.188 187.938 621.297 188.125 620.484 188.5C619.672 188.875 618.969 189.375 618.375 190C617.781 190.625 617.312 191.375 616.969 192.25C616.656 193.094 616.5 193.953 616.5 194.828H629.438ZM662.203 206.547C661.141 207.891 659.984 208.891 658.734 209.547C657.484 210.172 655.891 210.484 653.953 210.484C652.109 210.484 650.438 210.141 648.938 209.453C647.438 208.734 646.156 207.781 645.094 206.594C644.031 205.375 643.219 203.953 642.656 202.328C642.125 200.703 641.859 198.938 641.859 197.031C641.859 195.156 642.156 193.406 642.75 191.781C643.344 190.156 644.172 188.75 645.234 187.562C646.297 186.344 647.578 185.391 649.078 184.703C650.578 184.016 652.25 183.672 654.094 183.672C656.031 183.672 657.688 184 659.062 184.656C660.438 185.281 661.656 186.266 662.719 187.609L660.188 190.656C659.656 190.031 658.922 189.469 657.984 188.969C657.047 188.438 655.766 188.172 654.141 188.172C653.203 188.172 652.344 188.391 651.562 188.828C650.781 189.266 650.109 189.875 649.547 190.656C649.016 191.438 648.594 192.359 648.281 193.422C648 194.484 647.859 195.641 647.859 196.891C647.859 198.141 647.984 199.312 648.234 200.406C648.516 201.469 648.922 202.406 649.453 203.219C649.984 204.031 650.609 204.672 651.328 205.141C652.078 205.609 652.938 205.844 653.906 205.844C655.312 205.844 656.484 205.625 657.422 205.188C658.391 204.719 659.281 204.156 660.094 203.5L662.203 206.547ZM691.922 210.25H686.203V195.859C686.203 194.797 686.156 193.781 686.062 192.812C685.969 191.844 685.75 190.984 685.406 190.234C685.062 189.484 684.594 188.906 684 188.5C683.406 188.062 682.578 187.844 681.516 187.844C681.172 187.844 680.719 187.891 680.156 187.984C679.625 188.078 679.062 188.219 678.469 188.406C677.906 188.594 677.359 188.828 676.828 189.109C676.328 189.391 675.953 189.719 675.703 190.094V190.375V190.469V200.875V200.969V210.25H670.031V173.828H675.703V186.484C676.078 186.141 676.547 185.797 677.109 185.453C677.703 185.078 678.344 184.75 679.031 184.469C679.719 184.188 680.422 183.969 681.141 183.812C681.859 183.625 682.562 183.531 683.25 183.531C684.656 183.531 685.844 183.828 686.812 184.422C687.781 185.016 688.75 185.781 689.719 186.719C690.25 187.25 690.656 187.875 690.938 188.594C691.25 189.281 691.469 190.016 691.594 190.797C691.75 191.547 691.844 192.312 691.875 193.094C691.906 193.875 691.922 194.641 691.922 195.391V209.312V210.25ZM720.469 210.25H714.75V195.859C714.75 194.797 714.703 193.781 714.609 192.812C714.516 191.844 714.297 190.984 713.953 190.234C713.609 189.484 713.141 188.906 712.547 188.5C711.953 188.062 711.125 187.844 710.062 187.844C709.719 187.844 709.266 187.891 708.703 187.984C708.172 188.078 707.609 188.219 707.016 188.406C706.453 188.594 705.906 188.828 705.375 189.109C704.875 189.391 704.5 189.719 704.25 190.094V190.375V190.469V200.875V200.969V210.25H698.578V183.812H703.641L704.25 186.484C704.625 186.141 705.094 185.797 705.656 185.453C706.25 185.078 706.891 184.75 707.578 184.469C708.266 184.188 708.969 183.969 709.688 183.812C710.406 183.625 711.109 183.531 711.797 183.531C713.203 183.531 714.391 183.828 715.359 184.422C716.328 185.016 717.297 185.781 718.266 186.719C718.797 187.25 719.203 187.875 719.484 188.594C719.797 189.281 720.016 190.016 720.141 190.797C720.297 191.547 720.391 192.312 720.422 193.094C720.453 193.875 720.469 194.641 720.469 195.391V209.312V210.25ZM740.062 183.672C741.875 183.672 743.516 184.031 744.984 184.75C746.453 185.438 747.703 186.391 748.734 187.609C749.766 188.828 750.562 190.25 751.125 191.875C751.688 193.5 751.969 195.25 751.969 197.125C751.969 199 751.672 200.766 751.078 202.422C750.484 204.047 749.641 205.469 748.547 206.688C747.484 207.875 746.203 208.812 744.703 209.5C743.234 210.156 741.594 210.484 739.781 210.484C737.938 210.484 736.25 210.141 734.719 209.453C733.219 208.766 731.938 207.812 730.875 206.594C729.844 205.375 729.047 203.953 728.484 202.328C727.922 200.703 727.641 198.938 727.641 197.031C727.641 195.125 727.938 193.344 728.531 191.688C729.156 190.031 730 188.625 731.062 187.469C732.156 186.281 733.469 185.359 735 184.703C736.531 184.016 738.219 183.672 740.062 183.672ZM739.688 206.031C740.625 206.031 741.469 205.812 742.219 205.375C743 204.906 743.656 204.281 744.188 203.5C744.75 202.688 745.188 201.734 745.5 200.641C745.844 199.547 746.016 198.375 746.016 197.125C746.016 195.875 745.859 194.703 745.547 193.609C745.266 192.516 744.859 191.562 744.328 190.75C743.828 189.906 743.203 189.234 742.453 188.734C741.703 188.234 740.859 187.984 739.922 187.984C738.984 187.984 738.125 188.219 737.344 188.688C736.562 189.156 735.891 189.797 735.328 190.609C734.797 191.391 734.375 192.328 734.062 193.422C733.781 194.484 733.641 195.641 733.641 196.891C733.641 198.141 733.766 199.328 734.016 200.453C734.297 201.547 734.703 202.5 735.234 203.312C735.766 204.125 736.391 204.781 737.109 205.281C737.859 205.781 738.719 206.031 739.688 206.031ZM764.953 202.188C764.953 203.25 765.094 204.094 765.375 204.719C765.656 205.312 766.047 205.766 766.547 206.078C767.047 206.359 767.609 206.547 768.234 206.641C768.891 206.734 769.594 206.781 770.344 206.781V210.25C769.938 210.312 769.516 210.359 769.078 210.391C768.734 210.422 768.328 210.438 767.859 210.438C767.391 210.469 766.922 210.484 766.453 210.484C765.984 210.484 765.516 210.469 765.047 210.438C764.578 210.406 764.156 210.359 763.781 210.297C762.719 210.078 761.891 209.609 761.297 208.891C760.703 208.172 760.25 207.375 759.938 206.5C759.625 205.594 759.422 204.719 759.328 203.875C759.266 203.031 759.234 202.375 759.234 201.906V201.344V173.828H764.953V202.188ZM788.109 183.672C789.922 183.672 791.562 184.031 793.031 184.75C794.5 185.438 795.75 186.391 796.781 187.609C797.812 188.828 798.609 190.25 799.172 191.875C799.734 193.5 800.016 195.25 800.016 197.125C800.016 199 799.719 200.766 799.125 202.422C798.531 204.047 797.688 205.469 796.594 206.688C795.531 207.875 794.25 208.812 792.75 209.5C791.281 210.156 789.641 210.484 787.828 210.484C785.984 210.484 784.297 210.141 782.766 209.453C781.266 208.766 779.984 207.812 778.922 206.594C777.891 205.375 777.094 203.953 776.531 202.328C775.969 200.703 775.688 198.938 775.688 197.031C775.688 195.125 775.984 193.344 776.578 191.688C777.203 190.031 778.047 188.625 779.109 187.469C780.203 186.281 781.516 185.359 783.047 184.703C784.578 184.016 786.266 183.672 788.109 183.672ZM787.734 206.031C788.672 206.031 789.516 205.812 790.266 205.375C791.047 204.906 791.703 204.281 792.234 203.5C792.797 202.688 793.234 201.734 793.547 200.641C793.891 199.547 794.062 198.375 794.062 197.125C794.062 195.875 793.906 194.703 793.594 193.609C793.312 192.516 792.906 191.562 792.375 190.75C791.875 189.906 791.25 189.234 790.5 188.734C789.75 188.234 788.906 187.984 787.969 187.984C787.031 187.984 786.172 188.219 785.391 188.688C784.609 189.156 783.938 189.797 783.375 190.609C782.844 191.391 782.422 192.328 782.109 193.422C781.828 194.484 781.688 195.641 781.688 196.891C781.688 198.141 781.812 199.328 782.062 200.453C782.344 201.547 782.75 202.5 783.281 203.312C783.812 204.125 784.438 204.781 785.156 205.281C785.906 205.781 786.766 206.031 787.734 206.031ZM812.766 213.672C813.078 214.203 813.469 214.641 813.938 214.984C814.438 215.328 814.938 215.594 815.438 215.781C815.969 215.969 816.484 216.094 816.984 216.156C817.516 216.25 817.984 216.297 818.391 216.297C820.328 216.297 821.844 215.734 822.938 214.609C824.031 213.484 824.578 211.562 824.578 208.844V207.625V207.531L824.625 207.297C824.625 207.266 824.609 207.234 824.578 207.203C824.578 207.172 824.578 207.141 824.578 207.109C824.484 207.516 824.203 207.922 823.734 208.328C823.297 208.734 822.734 209.109 822.047 209.453C821.359 209.766 820.578 210.016 819.703 210.203C818.828 210.391 817.922 210.484 816.984 210.484C815.234 210.484 813.703 210.109 812.391 209.359C811.078 208.578 809.984 207.547 809.109 206.266C808.234 204.984 807.594 203.516 807.188 201.859C806.781 200.203 806.578 198.469 806.578 196.656C806.578 194.219 806.906 192.172 807.562 190.516C808.25 188.859 809.109 187.516 810.141 186.484C811.203 185.422 812.375 184.672 813.656 184.234C814.969 183.797 816.25 183.578 817.5 183.578C819.031 183.578 820.422 183.844 821.672 184.375C822.953 184.906 823.922 185.609 824.578 186.484L825.188 183.812H830.25L830.203 210.25C830.078 212.156 829.688 213.781 829.031 215.125C828.406 216.469 827.594 217.578 826.594 218.453C825.594 219.328 824.438 219.953 823.125 220.328C821.812 220.703 820.406 220.891 818.906 220.891C817.156 220.891 815.422 220.578 813.703 219.953C812.016 219.359 810.609 218.344 809.484 216.906L812.766 213.672ZM824.953 196.844C824.953 195.594 824.797 194.438 824.484 193.375C824.172 192.312 823.75 191.375 823.219 190.562C822.688 189.75 822.031 189.109 821.25 188.641C820.469 188.172 819.625 187.938 818.719 187.938C817.781 187.938 816.922 188.188 816.141 188.688C815.391 189.156 814.75 189.797 814.219 190.609C813.688 191.422 813.281 192.375 813 193.469C812.719 194.562 812.578 195.719 812.578 196.938C812.578 198.188 812.719 199.375 813 200.5C813.312 201.594 813.734 202.547 814.266 203.359C814.828 204.172 815.484 204.828 816.234 205.328C817.016 205.797 817.875 206.031 818.812 206.031C819.781 206.031 820.641 205.797 821.391 205.328C822.141 204.828 822.766 204.172 823.266 203.359C823.797 202.516 824.203 201.531 824.484 200.406C824.797 199.281 824.953 198.094 824.953 196.844ZM864.891 183.812C863.172 188.406 861.641 192.484 860.297 196.047C858.953 199.578 857.781 202.688 856.781 205.375C855.781 208.031 854.891 210.281 854.109 212.125C853.359 213.969 852.656 215.5 852 216.719C851.375 217.969 850.781 218.938 850.219 219.625C849.656 220.344 849.078 220.891 848.484 221.266C847.891 221.641 847.234 221.859 846.516 221.922C845.828 222.016 845.031 222.062 844.125 222.062C843.844 222.062 843.516 222.016 843.141 221.922C842.766 221.859 842.391 221.766 842.016 221.641C841.672 221.547 841.359 221.438 841.078 221.312C840.797 221.219 840.609 221.156 840.516 221.125C840.641 220.562 840.766 220.031 840.891 219.531C840.984 219.094 841.078 218.672 841.172 218.266C841.297 217.891 841.391 217.625 841.453 217.469C841.703 217.469 842.078 217.547 842.578 217.703C843.109 217.859 843.5 217.938 843.75 217.938C844.25 217.938 844.688 217.906 845.062 217.844C845.469 217.812 845.828 217.672 846.141 217.422C846.453 217.203 846.75 216.859 847.031 216.391C847.312 215.953 847.625 215.312 847.969 214.469L849.75 210.25L838.922 183.812H844.594L852.328 204.156L859.172 183.812H864.891Z" fill="#07BA52"/>
</svg>
